<?xml version="1.0" encoding="utf-8"?>
<!-- Generator: Adobe Illustrator 24.0.1, SVG Export Plug-In . SVG Version: 6.00 Build 0)  -->
<svg version="1.1" id="Layer_1" xmlns="http://www.w3.org/2000/svg" xmlns:xlink="http://www.w3.org/1999/xlink" x="0px" y="0px"
	 viewBox="0 0 512 512" style="enable-background:new 0 0 512 512;" xml:space="preserve">
<style type="text/css">
	.st0{fill:#F2F2F2;}
</style>
<g>
	<g>
		<path class="st0" d="M179.31,123.83c-0.87-2.3-2.42-3.81-4.62-4.58c-1.78-0.61-3.61-0.64-5.5-0.14c-1.78,0.41-3.58,1.25-5.33,2.53
			c-0.5,0.3-0.91,0.61-1.25,0.98c-0.34,0.34-0.7,0.67-1.11,0.98c0.2-0.3,0.3-0.61,0.38-0.87c0.03-0.3,0.14-0.55,0.23-0.73
			c0.09-0.3,0.2-0.5,0.3-0.61c0.3-0.61,0.61-1.19,0.87-1.72c0.27-0.53,0.61-1.11,0.87-1.72c4.86,0.5,9.23,0.27,13.22-0.67
			c3.94-0.94,7.28-2.3,10.02-4.08c2.73-1.78,4.75-3.81,6.11-6.06c1.34-2.3,1.86-4.55,1.55-6.84c-0.3-2.3-1.14-3.94-2.59-4.98
			c-1.45-1.05-3.11-1.62-5.06-1.78c-1.92-0.14-3.91,0.03-5.94,0.5c-2.02,0.5-3.84,1.08-5.42,1.78c-2.36,1.19-5.16,3.06-8.39,5.62
			c-3.2,2.56-6.37,5.94-9.44,10.08c-1.89-0.81-3.44-1.55-4.69-2.3c-0.84-0.5-1.69-0.98-2.56-1.45c0.06-0.09,0.14-0.23,0.17-0.34
			c1.55-2.91,3-5.39,4.45-7.42c1.45-2.02,2.56-3.5,3.34-4.39c0.3-0.5,0.41-0.87,0.38-1.11c-0.06-0.23-0.14-0.47-0.23-0.67
			c-0.87-1.08-1.98-2.09-3.27-2.97c-0.78-0.5-1.62-0.94-2.53-1.34c-0.87-0.41-1.89-0.64-2.97-0.73c-0.61-0.09-1.28,0-2.09,0.3
			c-1.48,0.41-3.03,1.22-4.69,2.47c-1.62,1.25-3.3,2.66-4.98,4.22c-1.69,1.58-3.3,3.23-4.89,4.98c-1.58,1.72-3.03,3.3-4.31,4.69
			c-0.78,0.87-2.19,2.47-4.14,4.69c-1.98,2.22-4.31,4.78-6.98,7.66c-3.06-2.3-6.64-4.31-10.75-6.06c-4.11-1.75-8.97-3.17-14.64-4.14
			c-0.09,0-1.14-0.09-3.11-0.3c-1.98-0.2-4.39-0.27-7.19-0.23c-2.83,0.03-5.83,0.38-8.97,0.98c-3.17,0.61-6,1.69-8.47,3.27
			c-2.47,1.58-4.34,3.78-5.62,6.61c-1.28,2.83-1.45,6.5-0.44,11.06c0.2,0.81,0.44,1.48,0.73,2.09c0.2,0.5,0.5,0.94,0.87,1.34
			c0.41,0.41,0.94,0.5,1.62,0.3c0.2,0,0.41-0.09,0.61-0.3c0.41-0.41,0.64-0.98,0.73-1.78v-0.3c0-0.2,0.09-0.55,0.3-1.05
			c0.2-0.5,0.61-1.08,1.19-1.78c0.78-0.87,1.92-1.95,3.41-3.2c1.48-1.25,3.41-2.42,5.8-3.58c2.36-1.14,5.16-2.02,8.39-2.66
			c3.2-0.64,6.95-0.81,11.19-0.5c3.78,0.3,7.19,0.98,10.25,2.09c3.06,1.08,5.91,2.42,8.47,4.02c-3.27,3.27-6.75,6.58-10.45,9.95
			c-3.7,3.37-7.39,6.37-11.06,9.06c-3.67,2.7-7.22,4.83-10.69,6.44c-3.47,1.62-6.58,2.39-9.34,2.3h-0.3
			c-0.78-0.09-1.45-0.38-1.98-0.81c-0.55-0.44-0.91-0.78-1.11-0.98c-0.5-0.87-1.19-1.19-2.09-0.87c-0.41,0.09-0.67,0.27-0.81,0.5
			c-0.14,0.23-0.23,0.41-0.23,0.5c0,0.2-0.03,0.37-0.06,0.5c-0.06,0.14-0.06,0.34-0.06,0.5c0.09,0.09,0.38,0.73,0.81,1.92
			s1.22,2.47,2.3,3.78c1.08,1.34,2.53,2.56,4.31,3.7s4.05,1.72,6.84,1.72c3.06,0,6.55-1.19,10.39-3.5
			c3.84-2.33,7.72-5.19,11.56-8.59c3.87-3.41,7.48-7.02,10.83-10.75c3.37-3.75,6.14-7.02,8.33-9.81c2.66,2.56,4.89,5.3,6.61,8.16
			c1.72,2.86,3.11,5.5,4.08,7.86c0.5,0.81,0.84,1.45,1.05,1.92c0.2,0.5,0.41,0.91,0.61,1.25c0.2,0.34,0.47,0.67,0.81,1.05
			c0.34,0.34,0.87,0.81,1.55,1.42c1.19,0.98,2.47,1.72,3.84,2.22c1.19,0.5,2.62,0.78,4.31,0.81c1.69,0.03,3.58-0.44,5.62-1.42
			c0.3-0.09,0.55-0.3,0.73-0.61c0.41-0.61,0.34-1.14-0.14-1.62c-0.3-0.3-0.94-0.81-1.92-1.48c-0.98-0.67-1.89-1.83-2.66-3.41
			c-0.78-1.58-1.34-3.75-1.72-6.44c-0.34-2.73-0.06-6.31,0.81-10.75c0.7-3.87,1.78-7.55,3.27-11.06c0.44-1.05,0.87-2.06,1.31-3.03
			c1.28,0.41,2.66,0.91,4.19,1.48c0.5,0.2,0.98,0.34,1.48,0.44c0.5,0.09,0.98,0.2,1.48,0.3c-1.08,1.98-2.09,4.05-3.03,6.17
			c-0.94,2.12-1.75,4.42-2.47,6.91c-1.48,4.86-1.98,8.59-1.55,11.19s1.22,4.58,2.3,5.86c1.28,1.48,3,2.36,5.19,2.66
			c0.5,0,0.98,0,1.42,0s0.87-0.03,1.25-0.14c0.5-0.2,0.84-0.5,1.05-0.98c0.2-0.44,0.23-0.91,0.14-1.42c-0.09-0.5-0.3-1.08-0.61-1.78
			c-0.61-1.89-0.91-3.61-0.98-5.19c-0.06-1.58-0.03-2.77,0.06-3.58c0-0.67,0.09-1.45,0.3-2.22c0.2-0.81,0.41-1.58,0.61-2.36
			c0.78-1.19,1.78-2.36,2.97-3.58c1.69-1.89,3.3-3.3,4.83-4.22c1.55-0.94,2.8-1.19,3.78-0.67c0.87,0.5,1.25,1.89,1.11,4.14
			c-0.14,2.3-0.55,4.69-1.19,7.22c-0.64,2.53-1.45,4.78-2.36,6.75c-0.94,1.98-1.75,2.86-2.47,2.66c-0.78-0.2-1.05-0.7-0.73-1.55
			c0.3-0.84,0.7-1.78,1.25-2.83c0.55-1.05,1.02-2.02,1.42-2.97c0.41-0.94,0.3-1.55-0.3-1.86c-1.08-0.67-2.19-0.78-3.27-0.23
			c-1.08,0.55-1.89,1.11-2.36,1.72c-0.7,0.81-1.22,1.75-1.55,2.91c-0.34,1.14-0.5,2.3-0.44,3.41c0.03,1.14,0.38,2.19,0.98,3.2
			c0.61,0.98,1.45,1.78,2.53,2.36s2.19,0.87,3.34,0.87c1.14,0,2.16-0.14,3.03-0.44c1.08-0.3,2.02-0.73,2.83-1.34
			c1.98-1.37,3.61-3.11,4.89-5.19c1.28-2.09,2.22-4.31,2.83-6.67c0.5-1.98,0.7-3.94,0.67-5.94
			C180.53,127.19,180.12,125.41,179.31,123.83z M172.93,105.21c1.78-1.72,3.3-2.86,4.52-3.41c1.25-0.55,2.16-0.64,2.83-0.3
			c0.67,0.34,1.08,0.7,1.25,1.11c0.09,0.5,0,1.34-0.3,2.53c-0.3,1.19-0.94,2.36-1.92,3.58c-0.98,1.19-2.36,2.3-4.14,3.27
			c-1.78,0.97-4.11,1.52-6.98,1.62h-1.48C169.06,109.74,171.15,106.92,172.93,105.21z M134.06,120.49c-1.69,3.7-2.94,7.45-3.7,11.19
			c-0.78-1.37-1.66-2.8-2.59-4.22c-0.94-1.45-2.09-2.83-3.47-4.22c2.09-2.56,4.19-5.16,6.31-7.78s4.14-4.98,6.11-7.11
			c1.92-2.12,3.67-3.87,5.27-5.27c1.59-1.39,2.83-2.09,3.7-2.09c-2.36,3.06-4.55,6.27-6.55,9.64
			C137.4,113.5,135.71,116.78,134.06,120.49z"/>
		<path class="st0" d="M219.98,147.42c-1.28-1.69-1.92-3.94-1.92-6.75c0-2.8,0.44-5.73,1.34-8.7c0.3-0.81,0.61-1.62,0.98-2.47
			c0.34-0.84,0.67-1.66,0.98-2.47c0.7-1.58,1.45-3.06,2.22-4.45c0.41-0.87,0.78-1.98,1.11-3.34c0.34-1.34-0.03-2.53-1.11-3.64
			c-0.87-0.98-1.98-1.31-3.27-0.98c-1.28,0.34-2.22,0.7-2.83,1.11c-0.3,0.2-0.61,0.44-0.98,0.67c-0.34,0.23-0.67,0.47-0.98,0.67
			c-1.28,0.98-2.5,2.02-3.64,3.11c-1.14,1.08-2.19,2.12-3.2,3.11c-1.08,1.08-2.12,2.3-3.11,3.58c0.5-1.08,1.25-2.36,2.3-3.87
			c1.05-1.48,1.95-2.66,2.73-3.58c0.5-0.5,0.61-0.98,0.38-1.42s-0.78-0.7-1.55-0.81h-0.14h-0.14c-1.37-0.2-2.56-0.17-3.47,0.06
			c-0.94,0.23-1.75,0.58-2.47,0.98c-0.78,0.41-1.45,0.87-1.92,1.48c-0.98,1.08-1.92,2.22-2.83,3.41c-0.87,1.19-1.72,2.33-2.53,3.41
			c-0.87,1.19-1.72,2.42-2.53,3.7c0.2-0.61,0.41-1.19,0.67-1.72c0.23-0.55,0.47-1.05,0.67-1.55c0.61-1.37,1.19-2.66,1.78-3.87
			c0.61-1.19,1.14-2.19,1.62-2.97c0.7-1.19,0.73-2.22,0.14-3.11c-0.61-0.87-1.14-1.48-1.62-1.78c-0.5-0.41-0.87-0.67-1.19-0.81
			c-0.3-0.14-0.55-0.27-0.73-0.37c-0.41-0.2-1.08-0.41-2.09-0.61c-0.98-0.2-1.72,0.09-2.22,0.87c-0.2,0.2-1.08,1.66-2.59,4.39
			c-1.55,2.73-3.14,6.41-4.83,11.06c0,0.09-0.03,0.2-0.06,0.3c-0.06,0.09-0.06,0.2-0.06,0.3c-0.2,0.5-0.41,1.11-0.61,1.86
			c-0.2,0.73-0.34,1.66-0.44,2.73c-0.09,1.08-0.09,2.33,0,3.7c0.09,1.37,0.5,2.73,1.19,4.08c0.7,1.34,1.75,2.53,3.2,3.58
			c1.45,1.05,3.41,1.72,5.86,1.98c0.09,0.09,0.23,0.09,0.44,0c0.41-0.2,0.64-0.55,0.73-1.05c0.2-0.41,0.3-0.84,0.3-1.34
			c0-0.61,0.03-1.45,0.14-2.59c0.09-1.14,0.3-2.36,0.61-3.7c0.3-1.34,0.78-2.73,1.42-4.22c0.64-1.48,1.55-2.97,2.73-4.45
			c-0.7,1.69-1.25,3.2-1.62,4.58c-0.3,1.19-0.41,2.36-0.3,3.5c0.09,1.14,0.61,1.95,1.48,2.47c1.69,0.98,3.3,1.58,4.83,1.78
			c1.55,0.2,2.39,0,2.59-0.61c0.09-0.3,0.17-0.87,0.23-1.72c0.03-0.84,0.17-1.89,0.38-3.11c0.2-1.25,0.61-2.56,1.19-4.02
			c0.61-1.45,1.45-2.91,2.53-4.39h0.14c-0.09,0.09-0.14,0.2-0.14,0.3c-1.69,4.25-2.62,7.83-2.83,10.69c-0.2,2.86-0.2,4.98,0,6.37
			c0,0.7,0.34,1.34,1.05,1.92c1.19,0.67,2.36,1.14,3.58,1.34c1.19,0.2,2.3,0.27,3.34,0.23c1.05-0.03,1.98-0.2,2.91-0.44
			c0.87-0.23,1.62-0.47,2.22-0.67c0.41-0.2,0.55-0.5,0.44-0.87C220.34,148.06,220.18,147.74,219.98,147.42z"/>
		<path class="st0" d="M343.65,119.74c-0.41-1.52-1.19-2.59-2.36-3.2c-1.37-0.67-2.77-1.05-4.14-1.05c-1.37,0-2.66,0.23-3.84,0.73
			c-1.19,0.5-2.3,1.11-3.34,1.86c-1.05,0.73-1.92,1.45-2.59,2.16c0.7-1.19,0.73-2.22,0.14-3.11c-0.61-0.87-1.14-1.48-1.62-1.78
			c-0.5-0.41-0.87-0.67-1.19-0.81c-0.3-0.14-0.55-0.27-0.73-0.38c-0.41-0.2-1.08-0.41-2.09-0.61c-0.98-0.2-1.72,0.09-2.22,0.87
			c-0.2,0.2-0.98,1.52-2.3,3.94c-1.34,2.42-2.83,5.73-4.52,9.87c-0.67,1.62-1.37,3.34-2.06,5.22c-0.14,0.14-0.3,0.27-0.47,0.41
			c-1.37,1.19-2.94,2.3-4.62,3.34c-1.69,1.05-3.44,1.95-5.27,2.73c-1.83,0.81-3.47,1.22-4.89,1.25c-1.45,0.03-2.59-0.3-3.47-1.05
			c-0.87-0.73-1.28-2.16-1.19-4.22c1.19-0.2,2.7-0.5,4.52-0.98c1.83-0.44,3.67-1.34,5.56-2.73c0.5-0.2,0.87-0.44,1.19-0.73
			c0.3-0.3,0.64-0.64,1.05-1.05c0.7-0.61,1.37-1.37,2.09-2.36c0.87-1.19,1.66-2.42,2.3-3.7c0.64-1.28,1.08-2.53,1.25-3.78
			c0.2-1.25,0.14-2.36-0.14-3.41c-0.3-1.05-0.87-1.86-1.78-2.47c-1.37-0.87-2.86-1.31-4.45-1.25c-1.58,0.03-3.17,0.44-4.75,1.19
			c-1.58,0.73-3.11,1.69-4.52,2.83c-1.45,1.14-2.73,2.36-3.94,3.64c-1.98,2.19-3.7,4.66-5.19,7.42c-0.64,1.19-1.14,2.33-1.62,3.5
			c-0.67,0.61-1.48,1.28-2.39,1.98c-1.28,0.98-2.73,1.92-4.39,2.83c-1.62,0.87-3.41,1.58-5.33,2.09c-1.92,0.5-3.98,0.55-6.17,0.14
			c-1.58-0.3-2.66-1.08-3.2-2.36c-0.55-1.28-0.47-3.37,0.23-6.23c0.3-1.48,0.78-2.91,1.48-4.31c0.7-1.37,1.42-2.56,2.16-3.58
			c0.73-0.98,1.48-1.72,2.22-2.16s1.25-0.47,1.55-0.06c0.3,0.5,0.41,1.14,0.3,1.92c-0.09,0.81-0.34,1.62-0.67,2.53
			c-0.34,0.87-0.78,1.72-1.34,2.47c-0.55,0.73-1.02,1.25-1.42,1.55c-0.78,0.81-1.34,1.58-1.72,2.36c-0.34,0.81-0.34,1.52,0.06,2.22
			l0.14,0.14c0.3,0.41,0.78,0.67,1.48,0.81c0.7,0.14,1.83-0.06,3.41-0.67c1.48-0.5,2.97-1.58,4.45-3.27
			c1.48-1.69,2.62-3.5,3.47-5.42c0.84-1.92,1.25-3.81,1.19-5.62c-0.06-1.81-0.81-3.2-2.3-4.08s-3.03-1.31-4.62-1.25
			c-1.58,0.03-3.14,0.44-4.69,1.11c-1.55,0.7-3,1.62-4.39,2.73c-1.37,1.14-2.62,2.36-3.7,3.64c-1.14,1.37-2.19,2.91-3.17,4.58
			c-0.55,0.17-1.05,0.3-1.52,0.38c-0.94,0.14-1.75,0.23-2.47,0.23c-0.78,0-1.55-0.03-2.22-0.14c0.2-0.67,0.38-1.58,0.5-2.66
			c0.14-1.08,0.2-2.22,0.14-3.41s-0.23-2.36-0.5-3.5c-0.3-1.14-0.73-2.09-1.34-2.91c-0.5-0.5-0.91-0.87-1.25-1.19
			c-0.34-0.3-0.78-0.55-1.25-0.73c-0.5-0.2-1.14-0.3-1.92-0.3h-1.05c-2.47,0.2-4.31,1.83-5.5,4.89c0-0.2-0.03-0.41-0.06-0.67
			c-0.06-0.23-0.27-0.47-0.67-0.67c-0.7-0.67-1.52-0.78-2.47-0.23c-0.94,0.55-1.72,1.08-2.3,1.55c-0.78,0.81-1.55,1.58-2.22,2.36
			c-0.7,0.81-1.34,1.58-1.92,2.36c-1.69,2.3-3.11,4.89-4.25,7.86c-1.14,2.97-1.83,5.8-2.09,8.53c-0.23,2.73,0.09,5.09,1.05,7.11
			c0.94,2.02,2.7,3.23,5.27,3.64c2.77,0.3,5.27-0.09,7.42-1.19c2.16-1.08,4.08-2.47,5.7-4.14c1.62-1.69,3-3.44,4.08-5.27
			s1.89-3.34,2.36-4.52c0.09-0.3,0.2-0.58,0.3-0.81c0.09-0.23,0.2-0.47,0.3-0.67l0.3-0.61c0.3,0.09,0.78,0.14,1.48,0.14
			c1.28,0,2.47-0.17,3.61-0.47c-0.87,2.22-1.45,4.45-1.66,6.61c-0.3,2.83,0.03,5.3,1.05,7.42c0.98,2.12,2.97,3.44,5.94,3.94
			c3.84,0.67,7.28,0.5,10.31-0.61c3-1.08,5.62-2.53,7.78-4.39c1.86-1.55,3.44-3.2,4.75-4.89c0,1.69,0.3,3.27,0.87,4.75
			c0.87,2.22,2.73,3.78,5.5,4.69c2.97,0.98,5.94,0.98,8.91-0.06c2.97-1.05,5.7-2.53,8.23-4.45c1.37-1.05,2.62-2.12,3.78-3.23
			c-0.61,1.98-1.19,4.02-1.72,6c-0.84,3.27-1.45,6.34-1.78,9.2c-0.34,2.86-0.23,5.09,0.37,6.67l0.3,0.61c0.09,0,0.14,0.03,0.14,0.14
			c0.2,0.3,0.44,0.64,0.73,1.05c0.3,0.41,0.73,0.84,1.34,1.34c0.41,0.41,0.98,0.81,1.78,1.19c0.3,0.2,1.11,0.41,2.47,0.61
			c1.34,0.2,2.56-0.23,3.64-1.34c0.09-0.2,0.2-0.41,0.3-0.61s0.09-0.41,0-0.61c0-0.61-0.06-1.08-0.14-1.48
			c-0.2-0.81-0.23-3.27-0.06-7.42c0.14-4.14,1.08-9.31,2.73-15.44c0.5-2.56,1.55-5.22,3.2-8.03c1.62-2.77,3.41-5.22,5.33-7.34
			c1.92-2.12,3.78-3.78,5.56-4.98c1.78-1.22,3.11-1.48,4.02-0.87c0.5,0.41,0.67,1.28,0.5,2.66c-0.14,1.37-0.55,2.97-1.19,4.75
			c-0.64,1.78-1.45,3.67-2.36,5.62c-0.94,1.98-1.89,3.78-2.83,5.36c-0.94,1.58-1.83,2.86-2.66,3.87c-0.84,0.98-1.52,1.37-1.98,1.19
			c-0.7-0.3-0.84-0.84-0.44-1.62c0.41-0.81,0.94-1.66,1.62-2.59c0.7-0.94,1.28-1.86,1.78-2.73s0.5-1.52,0-1.92
			c-1.08-0.81-2.19-0.98-3.34-0.61c-1.14,0.41-1.98,0.84-2.59,1.34c-0.78,0.81-1.45,1.72-1.92,2.73c-0.5,1.05-0.78,2.12-0.81,3.27
			c-0.06,1.14,0.14,2.27,0.5,3.34c0.41,1.08,1.14,1.98,2.22,2.66c1.08,0.81,2.16,1.25,3.27,1.42c1.08,0.14,2.09,0.14,2.97-0.06
			c1.08-0.2,2.09-0.55,2.97-1.05c2.3-1.08,4.14-2.59,5.62-4.52s2.73-4.05,3.7-6.31c0.61-1.58,1.14-3.41,1.72-5.5
			c0.55-2.09,0.87-4.08,0.98-6C344.19,123.02,344.02,121.3,343.65,119.74z M291.08,131.17c0-0.34,0.09-0.7,0.3-1.11
			c0.41-1.48,0.98-2.94,1.78-4.39c0.78-1.45,1.58-2.66,2.36-3.64s1.55-1.72,2.3-2.16c0.73-0.44,1.25-0.44,1.55,0.06
			c0.5,0.61,0.55,1.45,0.14,2.59c-0.41,1.14-0.94,2.27-1.62,3.34c-0.3,0.61-0.98,1.45-2.09,2.53l-1.05,1.05
			c-0.5,0.5-1.08,0.98-1.72,1.42c-0.64,0.44-1.42,0.91-2.3,1.42C290.98,131.88,291.08,131.52,291.08,131.17z M240.04,131.24
			c-1.37,2.09-2.56,3.58-3.58,4.45c-0.78,0.87-1.72,1.72-2.83,2.53c-1.08,0.81-2.09,1.08-2.97,0.87c-1.37-0.3-2.02-1.25-1.92-2.91
			c0.09-1.62,0.41-3.23,0.87-4.83c0.41-1.37,0.78-2.62,1.19-3.7c0.41-1.08,0.78-2.02,1.19-2.83c0.3-0.61,0.64-1.19,1.05-1.78
			c0.41-0.61,0.73-1.14,1.05-1.62c0.41-0.5,0.73-1.05,1.05-1.62c0.7-0.81,1.14-1.45,1.34-1.92c-0.09,0.5-0.2,0.94-0.3,1.34
			c-0.09,0.41-0.14,0.84-0.14,1.34c-0.2,0.61-0.23,1.05-0.14,1.34c0,0.7,0.06,1.34,0.14,1.92c0.09,0.61,0.2,1.14,0.3,1.62
			c0.3,0.98,0.67,1.83,1.11,2.47c0.44,0.64,0.91,1.19,1.42,1.55c0.5,0.5,1.05,0.87,1.62,1.19
			C240.48,130.77,240.34,130.94,240.04,131.24z M243.31,124.42c-0.3-0.09-0.64-0.3-1.05-0.61c-0.78-0.61-1.25-1.28-1.34-2.09
			c-0.2-0.98-0.17-2.02,0.06-3.11c0.23-1.09,0.78-1.69,1.55-1.78c0.78-0.09,1.28,0.7,1.48,2.36
			C244.24,120.92,243.98,122.64,243.31,124.42z"/>
		<path class="st0" d="M375.24,123.83c-0.87-2.3-2.42-3.81-4.62-4.58c-1.78-0.61-3.61-0.64-5.5-0.14c-1.78,0.41-3.58,1.25-5.33,2.53
			c-0.5,0.3-0.91,0.61-1.25,0.98c-0.34,0.34-0.7,0.67-1.11,0.98c0.2-0.3,0.3-0.61,0.37-0.87c0.03-0.3,0.14-0.55,0.23-0.73
			c0.09-0.3,0.2-0.5,0.3-0.61c0.3-0.61,0.61-1.19,0.87-1.72c0.27-0.55,0.61-1.11,0.87-1.72c4.86,0.5,9.23,0.27,13.22-0.67
			c3.94-0.94,7.28-2.3,10.02-4.08s4.75-3.81,6.11-6.06c1.34-2.3,1.86-4.55,1.55-6.84c-0.3-2.3-1.14-3.94-2.59-4.98
			c-1.45-1.05-3.11-1.62-5.06-1.78c-1.92-0.14-3.91,0.03-5.94,0.5c-2.02,0.5-3.84,1.08-5.42,1.78c-2.36,1.19-5.16,3.06-8.39,5.62
			c-3.2,2.56-6.37,5.94-9.44,10.08c-1.89-0.81-3.44-1.55-4.69-2.3c-1.25-0.75-2.5-1.45-3.78-2.09c-1.28-0.64-2.73-1.22-4.31-1.72
			c-1.58-0.5-3.61-0.84-6.11-1.05c-3.47-0.3-6.2,0.14-8.23,1.34c-2.02,1.22-3.55,2.47-4.52,3.87c-0.61,0.5-0.98,1.02-1.19,1.55
			c-0.2,0.55,0.55,0.81,2.22,0.81c2.66-0.09,6-0.06,9.95,0.06c3.94,0.14,8.8,1.31,14.53,3.5c0.5,0.2,0.98,0.34,1.48,0.44
			s0.98,0.2,1.48,0.3c-1.08,1.98-2.09,4.05-3.03,6.17c-0.94,2.12-1.75,4.42-2.47,6.91c-1.48,4.86-1.98,8.59-1.55,11.19
			c0.44,2.59,1.22,4.58,2.3,5.86c1.28,1.48,3,2.36,5.19,2.66c0.5,0,0.98,0,1.42,0c0.44,0,0.87-0.03,1.25-0.14
			c0.5-0.2,0.84-0.5,1.05-0.98c0.2-0.44,0.23-0.91,0.14-1.42c-0.09-0.5-0.3-1.08-0.61-1.78c-0.61-1.89-0.91-3.61-0.98-5.19
			c-0.06-1.58-0.03-2.77,0.06-3.58c0-0.67,0.09-1.45,0.3-2.22c0.2-0.81,0.41-1.58,0.61-2.36c0.78-1.19,1.78-2.36,2.97-3.58
			c1.69-1.89,3.3-3.3,4.83-4.22c1.55-0.94,2.8-1.19,3.78-0.67c0.87,0.5,1.25,1.89,1.11,4.14c-0.14,2.3-0.55,4.69-1.19,7.22
			c-0.64,2.53-1.45,4.78-2.36,6.75c-0.94,1.98-1.75,2.86-2.47,2.66c-0.78-0.2-1.05-0.7-0.73-1.55c0.3-0.84,0.7-1.78,1.25-2.83
			s1.02-2.02,1.42-2.97c0.41-0.95,0.3-1.55-0.3-1.86c-1.08-0.67-2.19-0.78-3.27-0.23c-1.08,0.55-1.89,1.11-2.36,1.72
			c-0.7,0.81-1.22,1.75-1.55,2.91c-0.34,1.14-0.5,2.3-0.44,3.41c0.03,1.14,0.38,2.19,0.98,3.2c0.61,0.98,1.45,1.78,2.53,2.36
			c1.08,0.58,2.19,0.87,3.34,0.87c1.14,0,2.16-0.14,3.03-0.44c1.08-0.3,2.02-0.73,2.83-1.34c1.98-1.37,3.61-3.11,4.89-5.19
			c1.28-2.09,2.22-4.31,2.83-6.67c0.5-1.98,0.7-3.94,0.67-5.94C376.46,127.19,376.05,125.41,375.24,123.83z M368.86,105.21
			c1.78-1.72,3.3-2.86,4.52-3.41c1.25-0.55,2.16-0.64,2.83-0.3c0.67,0.34,1.08,0.7,1.25,1.11c0.09,0.5,0,1.34-0.3,2.53
			c-0.3,1.19-0.94,2.36-1.92,3.58c-0.98,1.19-2.36,2.3-4.14,3.27c-1.78,0.97-4.11,1.52-6.98,1.62h-1.48
			C365.02,109.74,367.08,106.92,368.86,105.21z"/>
		<path class="st0" d="M409.02,129.55c0.34-0.84,0.7-1.66,1.11-2.47c0.5-1.37,1.08-2.66,1.72-3.87c0.64-1.19,1.22-2.19,1.72-2.97
			c0.5-0.87,0.55-1.83,0.14-2.83c0-0.09-0.06-0.14-0.14-0.14v-0.14l-0.87-1.34l-0.3-0.14c-0.09,0-0.14-0.03-0.14-0.14
			c-0.5-0.5-0.94-0.81-1.34-0.98c-0.41-0.14-0.73-0.27-1.05-0.38c-0.41-0.09-0.7-0.09-0.87,0c-0.78,0.41-1.25,0.7-1.34,0.87h-0.14
			c-1.19,1.08-2.3,2.36-3.27,3.78c-0.98,1.42-1.78,2.7-2.36,3.78c-0.78,1.37-1.72,2.94-2.73,4.69c-1.05,1.72-2.09,3.41-3.2,5.06
			c-1.08,1.62-2.16,3.03-3.2,4.22c-1.05,1.19-1.92,1.92-2.59,2.22c-0.09,0.09-0.23,0.14-0.44,0.14c-0.7-0.09-1.14-0.5-1.34-1.25
			c-0.2-0.73-0.27-1.58-0.23-2.53c0.03-0.94,0.2-1.89,0.44-2.83c0.23-0.94,0.44-1.66,0.5-2.16c0-0.09,0.03-0.14,0.06-0.14
			c0.03,0,0.06-0.03,0.06-0.14c0.2-0.5,0.41-0.98,0.61-1.42s0.41-0.91,0.61-1.42c0.61-1.37,1.19-2.66,1.78-3.87
			c0.61-1.19,1.14-2.19,1.62-2.97c0.61-1.19,0.61-2.22,0-3.11c-0.61-0.87-1.08-1.48-1.48-1.78c-0.7-0.61-1.37-0.98-2.09-1.19
			c-0.3-0.2-0.94-0.41-1.92-0.61c-0.98-0.2-1.72,0.09-2.22,0.87c-0.2,0.2-1.08,1.66-2.59,4.39c-1.55,2.73-3.14,6.41-4.83,11.06
			c0,0.09-0.03,0.2-0.06,0.3c-0.06,0.09-0.06,0.2-0.06,0.3c-0.3,0.5-0.5,1.05-0.61,1.62c-1.69,5.62-1.78,9.91-0.38,12.78
			c1.45,2.86,4.05,4.14,7.78,3.87c0.5,0,0.98-0.14,1.48-0.44c0.7-0.09,1.45-0.5,2.22-1.19c1.19-0.87,2.36-2.09,3.47-3.58
			c1.14-1.48,2.27-3.06,3.34-4.75c-0.3,1.98-0.44,3.64-0.44,4.98c0,1.34,0.03,2.39,0.14,3.2c0,0.7,0.34,1.34,1.05,1.92
			c1.19,0.67,2.36,1.14,3.58,1.34c1.19,0.2,2.3,0.27,3.34,0.23c1.05-0.03,1.98-0.2,2.91-0.44c0.87-0.23,1.62-0.47,2.22-0.67
			c0.5-0.2,0.67-0.5,0.5-0.87c-0.17-0.38-0.34-0.73-0.5-1.05c-1.28-1.69-1.92-3.94-1.92-6.75c0-2.8,0.5-5.73,1.48-8.7
			C408.41,131.2,408.69,130.39,409.02,129.55z"/>
		<path class="st0" d="M445.03,131.11c-0.3-0.2-0.61-0.23-0.98-0.14c-0.34,0.09-0.61,0.23-0.81,0.44c-0.78,0.81-1.83,1.69-3.11,2.66
			c-1.28,0.97-2.73,1.92-4.39,2.83c-1.62,0.87-3.41,1.58-5.33,2.09c-1.92,0.5-3.98,0.55-6.17,0.14c-1.58-0.3-2.66-1.08-3.2-2.36
			c-0.55-1.28-0.47-3.37,0.23-6.23c0.3-1.48,0.78-2.91,1.48-4.31c0.7-1.37,1.42-2.56,2.16-3.58c0.73-0.98,1.48-1.72,2.22-2.16
			c0.73-0.44,1.25-0.47,1.55-0.06c0.3,0.5,0.41,1.14,0.3,1.92c-0.09,0.81-0.34,1.62-0.67,2.53c-0.34,0.87-0.78,1.72-1.34,2.47
			c-0.55,0.73-1.02,1.25-1.42,1.55c-0.78,0.81-1.34,1.58-1.72,2.36c-0.34,0.81-0.34,1.52,0.06,2.22l0.14,0.14
			c0.3,0.41,0.78,0.67,1.48,0.81c0.7,0.14,1.83-0.06,3.41-0.67c1.48-0.5,2.97-1.58,4.45-3.27c1.48-1.69,2.62-3.5,3.47-5.42
			c0.84-1.92,1.25-3.81,1.19-5.62c-0.06-1.81-0.81-3.2-2.3-4.08c-1.48-0.87-3.03-1.31-4.62-1.25c-1.58,0.03-3.14,0.44-4.69,1.11
			c-1.55,0.7-3,1.62-4.39,2.73c-1.37,1.14-2.62,2.36-3.7,3.64c-1.78,2.19-3.37,4.72-4.75,7.66c-1.37,2.94-2.22,5.8-2.53,8.59
			c-0.3,2.8,0.03,5.3,1.05,7.42c0.98,2.12,2.97,3.44,5.94,3.94c3.84,0.67,7.28,0.5,10.31-0.61c3-1.08,5.62-2.53,7.78-4.39
			c2.16-1.83,3.98-3.75,5.42-5.8c1.45-2.02,2.5-3.64,3.2-4.83C445.58,132.52,445.61,131.67,445.03,131.11z"/>
	</g>
	<g>
		<path class="st0" d="M128.06,231.11l-12.44,92.83c0.41-0.2,0.87-0.41,1.34-0.61c3.23-1.25,6.78-1.89,10.55-1.89h14.39
			L128.06,231.11z M128.06,231.11l-12.44,92.83c0.41-0.2,0.87-0.41,1.34-0.61c3.23-1.25,6.78-1.89,10.55-1.89h14.39L128.06,231.11z
			 M128.06,231.11l-12.44,92.83c0.41-0.2,0.87-0.41,1.34-0.61c3.23-1.25,6.78-1.89,10.55-1.89h14.39L128.06,231.11z M229.71,229.59
			c-1.02-5.97-2.36-10.31-4.08-12.92c-1.58-2.39-3.34-3.67-5.42-3.91c-1.98-0.2-4.05-0.34-6.17-0.41l0.23,95.92
			c1.52-0.73,3.67-1.08,6.5-1.08c2.5,0,4.45-0.37,5.83-1.11c0.81-0.44,1.92-1.72,2.8-5.42c0.78-3.37,1.31-8.53,1.52-15.34
			c0.23-6.95,0.34-16.59,0.34-28.66C231.27,244.84,230.73,235.73,229.71,229.59z M282.44,231.11l-12.44,92.83
			c0.41-0.2,0.87-0.41,1.34-0.61c3.23-1.25,6.78-1.89,10.55-1.89h14.44L282.44,231.11z M282.44,231.11l-12.44,92.83
			c0.41-0.2,0.87-0.41,1.34-0.61c3.23-1.25,6.78-1.89,10.55-1.89h14.44L282.44,231.11z M229.71,229.59
			c-1.02-5.97-2.36-10.31-4.08-12.92c-1.58-2.39-3.34-3.67-5.42-3.91c-1.98-0.2-4.05-0.34-6.17-0.41l0.23,95.92
			c1.52-0.73,3.67-1.08,6.5-1.08c2.5,0,4.45-0.37,5.83-1.11c0.81-0.44,1.92-1.72,2.8-5.42c0.78-3.37,1.31-8.53,1.52-15.34
			c0.23-6.95,0.34-16.59,0.34-28.66C231.27,244.84,230.73,235.73,229.71,229.59z M128.06,231.11l-12.44,92.83
			c0.41-0.2,0.87-0.41,1.34-0.61c3.23-1.25,6.78-1.89,10.55-1.89h14.39L128.06,231.11z M128.06,231.11l-12.44,92.83
			c0.41-0.2,0.87-0.41,1.34-0.61c3.23-1.25,6.78-1.89,10.55-1.89h14.39L128.06,231.11z M229.71,229.59
			c-1.02-5.97-2.36-10.31-4.08-12.92c-1.58-2.39-3.34-3.67-5.42-3.91c-1.98-0.2-4.05-0.34-6.17-0.41l0.23,95.92
			c1.52-0.73,3.67-1.08,6.5-1.08c2.5,0,4.45-0.37,5.83-1.11c0.81-0.44,1.92-1.72,2.8-5.42c0.78-3.37,1.31-8.53,1.52-15.34
			c0.23-6.95,0.34-16.59,0.34-28.66C231.27,244.84,230.73,235.73,229.71,229.59z M282.44,231.11l-12.44,92.83
			c0.41-0.2,0.87-0.41,1.34-0.61c3.23-1.25,6.78-1.89,10.55-1.89h14.44L282.44,231.11z M282.44,231.11l-12.44,92.83
			c0.41-0.2,0.87-0.41,1.34-0.61c3.23-1.25,6.78-1.89,10.55-1.89h14.44L282.44,231.11z M229.71,229.59
			c-1.02-5.97-2.36-10.31-4.08-12.92c-1.58-2.39-3.34-3.67-5.42-3.91c-1.98-0.2-4.05-0.34-6.17-0.41l0.23,95.92
			c1.52-0.73,3.67-1.08,6.5-1.08c2.5,0,4.45-0.37,5.83-1.11c0.81-0.44,1.92-1.72,2.8-5.42c0.78-3.37,1.31-8.53,1.52-15.34
			c0.23-6.95,0.34-16.59,0.34-28.66C231.27,244.84,230.73,235.73,229.71,229.59z M128.06,231.11l-12.44,92.83
			c0.41-0.2,0.87-0.41,1.34-0.61c3.23-1.25,6.78-1.89,10.55-1.89h14.39L128.06,231.11z M128.06,231.11l-12.44,92.83
			c0.41-0.2,0.87-0.41,1.34-0.61c3.23-1.25,6.78-1.89,10.55-1.89h14.39L128.06,231.11z M229.71,229.59
			c-1.02-5.97-2.36-10.31-4.08-12.92c-1.58-2.39-3.34-3.67-5.42-3.91c-1.98-0.2-4.05-0.34-6.17-0.41l0.23,95.92
			c1.52-0.73,3.67-1.08,6.5-1.08c2.5,0,4.45-0.37,5.83-1.11c0.81-0.44,1.92-1.72,2.8-5.42c0.78-3.37,1.31-8.53,1.52-15.34
			c0.23-6.95,0.34-16.59,0.34-28.66C231.27,244.84,230.73,235.73,229.71,229.59z M282.44,231.11l-12.44,92.83
			c0.41-0.2,0.87-0.41,1.34-0.61c3.23-1.25,6.78-1.89,10.55-1.89h14.44L282.44,231.11z M282.44,231.11l-12.44,92.83
			c0.41-0.2,0.87-0.41,1.34-0.61c3.23-1.25,6.78-1.89,10.55-1.89h14.44L282.44,231.11z M229.71,229.59
			c-1.02-5.97-2.36-10.31-4.08-12.92c-1.58-2.39-3.34-3.67-5.42-3.91c-1.98-0.2-4.05-0.34-6.17-0.41l0.23,95.92
			c1.52-0.73,3.67-1.08,6.5-1.08c2.5,0,4.45-0.37,5.83-1.11c0.81-0.44,1.92-1.72,2.8-5.42c0.78-3.37,1.31-8.53,1.52-15.34
			c0.23-6.95,0.34-16.59,0.34-28.66C231.27,244.84,230.73,235.73,229.71,229.59z M128.06,231.11l-12.44,92.83
			c0.41-0.2,0.87-0.41,1.34-0.61c3.23-1.25,6.78-1.89,10.55-1.89h14.39L128.06,231.11z M487.02,180.06H24.98
			C11.19,180.06,0,191.22,0,205.05v161.23c0,13.8,11.16,24.98,24.98,24.98h462.03c13.83,0,25.01-11.19,24.98-24.98V205.05
			C512,191.26,500.8,180.06,487.02,180.06z M22.66,305.56c-7.52,0-13.62-6.11-13.62-13.62c0-7.52,6.11-13.62,13.62-13.62
			c0.27,0,0.58,0,0.84,0.03c-7.14,0.44-12.78,6.34-12.78,13.59c0,7.25,5.62,13.19,12.78,13.59
			C23.23,305.56,22.97,305.56,22.66,305.56z M23.5,303.23c-6.23,0-11.3-5.06-11.3-11.3c0-6.23,5.06-11.3,11.3-11.3
			s11.3,5.06,11.3,11.3C34.8,298.17,29.73,303.23,23.5,303.23z M99.47,221.47h-6.61v-9.14H75.19l0.23,146.9h4.45v6.17H48.11v-6.17
			h5.56v-146.9h-5.56v-6.17h51.36V221.47z M177.53,365.37h-35.3v-5.73h5.3l-4.62-32.53h-16.28c-1.25,0-2.59,0.09-4.08,0.3
			c-1.37,0.2-2.7,0.58-3.94,1.19c-1.22,0.55-2.19,1.31-3,2.22c-0.73,0.84-1.14,1.92-1.25,3.34v0.09l-3.3,25.39h3.55v5.73h-11.19
			c-0.98,0-3.2,0-3.2-1.95v-3.75H104c0.14-0.98,0.34-2.59,0.7-5.27c0.58-4.39,1.34-10.08,2.33-17.12
			c0.94-6.84,1.98-14.73,3.23-24.14c1.14-8.7,2.36-17.97,3.58-27.58c2.73-21.58,5.83-45.98,9.31-73.23h-5.33v-6.17h27.2
			l27.78,153.48h4.75v5.73H177.53z M251.13,288.12c-0.55,7.72-1.83,13.36-3.87,17.16c-2.19,4.05-5.62,6.5-10.25,7.34
			c-4.19,0.78-9.91,1.14-17.12,1.14c-2.09,0-3.5,0.5-4.28,1.52c-0.87,1.19-1.31,3.06-1.31,5.62v38.34h4.45v6.17h-31.76v-6.17h5.56
			v-146.9h-5.56v-6.17h25.33c7.14,0,13.25,0.27,18.2,0.78c5.27,0.58,9.61,2.56,12.84,5.86c3.2,3.27,5.47,8.42,6.75,15.34
			c1.22,6.67,1.83,16.25,1.83,28.45C251.9,270.09,251.63,280.67,251.13,288.12z M331.94,365.4h-35.3v-5.73h5.3l-4.62-32.53h-16.28
			c-1.25,0-2.59,0.09-4.08,0.3c-1.37,0.2-2.7,0.58-3.94,1.19c-1.22,0.55-2.19,1.31-3,2.22c-0.7,0.84-1.14,1.92-1.25,3.34v0.06
			l-3.3,25.39h3.5v5.73h-11.19c-0.98,0-3.2,0-3.2-1.95v-3.75h3.78c0.14-0.98,0.34-2.59,0.7-5.27c0.58-4.39,1.34-10.08,2.33-17.12
			c0.94-6.91,2.02-14.8,3.23-24.14c1.14-8.59,2.3-17.64,3.58-27.58c2.73-21.58,5.83-45.98,9.31-73.23h-5.33v-6.17h27.25
			l27.78,153.51h4.75v5.73H331.94z M463.67,365.28h-1.75c-7.39,0-13.22-1.14-17.3-3.34c-4.19-2.27-7.28-5.59-9.2-9.95
			c-1.86-4.22-2.91-9.37-3.14-15.34c-0.23-5.77-0.34-12.44-0.34-19.86c0-8.67-0.81-15.31-2.36-19.8c-1.52-4.34-3.37-7.52-5.5-9.37
			c-2.09-1.86-4.25-2.83-6.55-3.03c-1.83-0.17-3.5-0.27-4.98-0.3l0.2,74.78h4.45v6.17h-31.76v-6.17H391v-75.01
			c-1.48,0.03-3.14,0.14-4.98,0.3c-2.27,0.2-4.45,1.22-6.55,3.03c-2.12,1.86-3.98,5.03-5.5,9.37c-1.58,4.45-2.36,11.12-2.36,19.8
			c0,7.39-0.09,14.09-0.34,19.86c-0.2,6-1.28,11.16-3.14,15.34c-1.92,4.34-5.03,7.69-9.2,9.95c-4.14,2.27-9.81,3.34-17.3,3.34h-1.75
			v-6.37h1.75c2.22,0,3.84-0.73,4.92-2.19c1.22-1.69,2.09-4.22,2.56-7.55c0.5-3.55,0.78-8.06,0.78-13.42
			c0-5.53,0.09-11.91,0.23-18.92c0-6.47,0.58-12.23,1.72-17.16c1.19-5.06,3.23-9.37,6.17-12.75c2.94-3.41,6.87-5.97,11.67-7.62
			c1.72-0.58,3.64-1.08,5.7-1.45c-0.38-0.23-0.7-0.5-1.05-0.78c-2.53-2.19-4.19-5.47-4.92-9.7c-0.67-3.91-1.11-8.87-1.34-14.7
			c-0.23-5.67-1.08-12.31-2.53-19.77c-0.84-4.58-1.72-7.83-2.53-9.61c-0.78-1.69-1.37-2.09-1.55-2.12
			c-0.67-0.09-1.45,0.41-1.98,0.84c-1.28,1.05-2.7,1.98-4.19,2.77c-1.69,0.91-3.55,1.31-5.47,1.22c-2.16-0.09-4.25-1.34-6.37-3.84
			c-1.98-2.33-2.77-4.83-2.3-7.34c0.44-2.39,1.58-4.39,3.37-5.91c1.75-1.48,4.02-2.39,6.7-2.73c2.77-0.34,5.56,0.34,8.36,2.02
			c2.7,1.66,5.16,4.39,7.39,8.19c2.16,3.7,3.87,8.83,5.09,15.23c1.78,8.8,2.8,16.19,2.94,21.98c0.17,5.56,0.64,10.08,1.42,13.45
			c0.7,3.03,2.06,5.06,4.08,6.23c1.37,0.78,4.31,1.72,10.62,1.86v-62.58h-5.56v-6.17h31.76v6.17h-4.69v62.92
			c5.12-0.09,8.73-0.73,10.75-1.86c2.12-1.19,3.5-3.2,4.28-6.23c0.84-3.34,1.42-7.89,1.72-13.45c0.3-5.77,1.34-13.11,3.14-21.92
			c1.05-6.41,2.73-11.53,4.98-15.28c2.3-3.78,4.78-6.55,7.48-8.16c2.8-1.69,5.59-2.36,8.36-2.02c2.73,0.34,4.95,1.25,6.7,2.73
			c1.78,1.52,2.94,3.5,3.37,5.91c0.44,2.53-0.3,5.03-2.3,7.34l-0.06,0.06c-2.3,2.42-4.39,3.67-6.44,3.78
			c-1.89,0.06-3.67-0.34-5.36-1.22c-1.52-0.81-2.91-1.72-4.19-2.77c-0.55-0.44-1.31-0.94-1.98-0.84c-0.17,0.03-0.78,0.47-1.55,2.12
			c-0.81,1.78-1.66,5.03-2.53,9.61v0.03c-1.58,7.42-2.5,14.06-2.73,19.72c-0.2,5.86-0.73,10.83-1.58,14.77
			c-0.91,4.22-2.66,7.45-5.27,9.64c-0.34,0.27-0.7,0.55-1.08,0.78c2.02,0.37,3.91,0.84,5.62,1.45c4.83,1.66,8.73,4.22,11.67,7.62
			c2.94,3.37,4.98,7.69,6.17,12.75c1.14,4.92,1.72,10.69,1.72,17.16c0.17,7.19,0.23,13.56,0.23,18.92c0,5.39,0.27,9.91,0.78,13.42
			c0.47,3.34,1.31,5.91,2.5,7.59c1.02,1.42,2.62,2.12,5.03,2.12v-0.14h1.55L463.67,365.28L463.67,365.28z M490.34,305.56
			c-7.52,0-13.62-6.11-13.62-13.62c0-7.52,6.11-13.62,13.62-13.62c0.27,0,0.58,0,0.84,0.03c-7.14,0.44-12.78,6.34-12.78,13.59
			c0,7.25,5.62,13.19,12.78,13.59C490.92,305.56,490.66,305.56,490.34,305.56z M491.19,303.23c-6.23,0-11.3-5.06-11.3-11.3
			c0-6.23,5.06-11.3,11.3-11.3c6.23,0,11.3,5.06,11.3,11.3C502.48,298.17,497.44,303.23,491.19,303.23z M270.01,323.93
			c0.41-0.2,0.87-0.41,1.34-0.61c3.23-1.25,6.78-1.89,10.55-1.89h14.44l-13.89-90.33L270.01,323.93z M225.63,216.69
			c-1.58-2.39-3.34-3.67-5.42-3.91c-1.98-0.2-4.05-0.34-6.17-0.41l0.23,95.92c1.52-0.73,3.67-1.08,6.5-1.08
			c2.5,0,4.45-0.37,5.83-1.11c0.81-0.44,1.92-1.72,2.8-5.42c0.78-3.37,1.31-8.53,1.52-15.34c0.23-6.95,0.34-16.59,0.34-28.66
			c0-11.83-0.55-20.94-1.55-27.08C228.71,223.62,227.35,219.28,225.63,216.69z M115.62,323.93c0.41-0.2,0.87-0.41,1.34-0.61
			c3.23-1.25,6.78-1.89,10.55-1.89h14.39l-13.86-90.33L115.62,323.93z M128.06,231.11l-12.44,92.83c0.41-0.2,0.87-0.41,1.34-0.61
			c3.23-1.25,6.78-1.89,10.55-1.89h14.39L128.06,231.11z M229.71,229.59c-1.02-5.97-2.36-10.31-4.08-12.92
			c-1.58-2.39-3.34-3.67-5.42-3.91c-1.98-0.2-4.05-0.34-6.17-0.41l0.23,95.92c1.52-0.73,3.67-1.08,6.5-1.08
			c2.5,0,4.45-0.37,5.83-1.11c0.81-0.44,1.92-1.72,2.8-5.42c0.78-3.37,1.31-8.53,1.52-15.34c0.23-6.95,0.34-16.59,0.34-28.66
			C231.27,244.84,230.73,235.73,229.71,229.59z M282.44,231.11l-12.44,92.83c0.41-0.2,0.87-0.41,1.34-0.61
			c3.23-1.25,6.78-1.89,10.55-1.89h14.44L282.44,231.11z M282.44,231.11l-12.44,92.83c0.41-0.2,0.87-0.41,1.34-0.61
			c3.23-1.25,6.78-1.89,10.55-1.89h14.44L282.44,231.11z M229.71,229.59c-1.02-5.97-2.36-10.31-4.08-12.92
			c-1.58-2.39-3.34-3.67-5.42-3.91c-1.98-0.2-4.05-0.34-6.17-0.41l0.23,95.92c1.52-0.73,3.67-1.08,6.5-1.08
			c2.5,0,4.45-0.37,5.83-1.11c0.81-0.44,1.92-1.72,2.8-5.42c0.78-3.37,1.31-8.53,1.52-15.34c0.23-6.95,0.34-16.59,0.34-28.66
			C231.27,244.84,230.73,235.73,229.71,229.59z M128.06,231.11l-12.44,92.83c0.41-0.2,0.87-0.41,1.34-0.61
			c3.23-1.25,6.78-1.89,10.55-1.89h14.39L128.06,231.11z M128.06,231.11l-12.44,92.83c0.41-0.2,0.87-0.41,1.34-0.61
			c3.23-1.25,6.78-1.89,10.55-1.89h14.39L128.06,231.11z M229.71,229.59c-1.02-5.97-2.36-10.31-4.08-12.92
			c-1.58-2.39-3.34-3.67-5.42-3.91c-1.98-0.2-4.05-0.34-6.17-0.41l0.23,95.92c1.52-0.73,3.67-1.08,6.5-1.08
			c2.5,0,4.45-0.37,5.83-1.11c0.81-0.44,1.92-1.72,2.8-5.42c0.78-3.37,1.31-8.53,1.52-15.34c0.23-6.95,0.34-16.59,0.34-28.66
			C231.27,244.84,230.73,235.73,229.71,229.59z M282.44,231.11l-12.44,92.83c0.41-0.2,0.87-0.41,1.34-0.61
			c3.23-1.25,6.78-1.89,10.55-1.89h14.44L282.44,231.11z M282.44,231.11l-12.44,92.83c0.41-0.2,0.87-0.41,1.34-0.61
			c3.23-1.25,6.78-1.89,10.55-1.89h14.44L282.44,231.11z M229.71,229.59c-1.02-5.97-2.36-10.31-4.08-12.92
			c-1.58-2.39-3.34-3.67-5.42-3.91c-1.98-0.2-4.05-0.34-6.17-0.41l0.23,95.92c1.52-0.73,3.67-1.08,6.5-1.08
			c2.5,0,4.45-0.37,5.83-1.11c0.81-0.44,1.92-1.72,2.8-5.42c0.78-3.37,1.31-8.53,1.52-15.34c0.23-6.95,0.34-16.59,0.34-28.66
			C231.27,244.84,230.73,235.73,229.71,229.59z M128.06,231.11l-12.44,92.83c0.41-0.2,0.87-0.41,1.34-0.61
			c3.23-1.25,6.78-1.89,10.55-1.89h14.39L128.06,231.11z M128.06,231.11l-12.44,92.83c0.41-0.2,0.87-0.41,1.34-0.61
			c3.23-1.25,6.78-1.89,10.55-1.89h14.39L128.06,231.11z M229.71,229.59c-1.02-5.97-2.36-10.31-4.08-12.92
			c-1.58-2.39-3.34-3.67-5.42-3.91c-1.98-0.2-4.05-0.34-6.17-0.41l0.23,95.92c1.52-0.73,3.67-1.08,6.5-1.08
			c2.5,0,4.45-0.37,5.83-1.11c0.81-0.44,1.92-1.72,2.8-5.42c0.78-3.37,1.31-8.53,1.52-15.34c0.23-6.95,0.34-16.59,0.34-28.66
			C231.27,244.84,230.73,235.73,229.71,229.59z M229.71,229.59c-1.02-5.97-2.36-10.31-4.08-12.92c-1.58-2.39-3.34-3.67-5.42-3.91
			c-1.98-0.2-4.05-0.34-6.17-0.41l0.23,95.92c1.52-0.73,3.67-1.08,6.5-1.08c2.5,0,4.45-0.37,5.83-1.11c0.81-0.44,1.92-1.72,2.8-5.42
			c0.78-3.37,1.31-8.53,1.52-15.34c0.23-6.95,0.34-16.59,0.34-28.66C231.27,244.84,230.73,235.73,229.71,229.59z M128.06,231.11
			l-12.44,92.83c0.41-0.2,0.87-0.41,1.34-0.61c3.23-1.25,6.78-1.89,10.55-1.89h14.39L128.06,231.11z"/>
	</g>
</g>
</svg>
