<?xml version="1.0" encoding="utf-8"?>
<!-- Generator: Adobe Illustrator 24.0.1, SVG Export Plug-In . SVG Version: 6.00 Build 0)  -->
<svg version="1.1" id="logo" xmlns="http://www.w3.org/2000/svg" xmlns:xlink="http://www.w3.org/1999/xlink" x="0px" y="0px"
	 viewBox="0 0 2834.6 1522.7" style="enable-background:new 0 0 2834.6 1522.7;" xml:space="preserve">
<style type="text/css">
	.st0{fill:#F1F2F2;}
</style>
<g>
	<g>
		<path class="st0" d="M1566,1187.4v-10.6c0-2.9-2.4-5.4-5.4-5.4h-25.8c-11.5-8.9-21.4-20.7-29.3-35.6h-15.1
			c10.4,19.8,23.7,35.4,38.3,45.9c10.4,7.5,21.4,12.5,32.5,14.5v68.8h-10.6c-3.7-18-11.4-34.6-21.9-48.9
			c-22.7-30.8-59.2-50.9-100.3-50.9c-45,0-84.5,24.2-106.4,60.1c-7.4,12.1-12.8,25.4-15.8,39.8h-16.8v-68.8
			c11.4-2.1,22.4-7.3,32.5-15.1c13.5-10.5,25.6-25.9,34.9-45.3H1345c-7.9,14.8-17.9,26.7-29.3,35.6H1290c-2.9,0-5.4,2.4-5.4,5.4
			v10.6c-4.2,1.3-8.4,2.3-12.8,3.1v197.9h12.8v12.7c0,2.9,2.4,5.4,5.4,5.4h26.6c2.9,0,5.4-2.4,5.4-5.4v-12.7h11.6
			c24.3,21.9,56.4,35.3,91.7,35.3c35.3,0,67.4-13.4,91.7-35.3h11.6v12.7c0,2.9,2.4,5.4,5.4,5.4h26.6c2.9,0,5.4-2.4,5.4-5.4v-12.7
			h12.8v-197.9C1574.4,1189.7,1570.2,1188.6,1566,1187.4z M1289.5,1379.3v-66.6h16.4c2.8,15.1,8.4,29.2,16.1,41.9
			c5.5,9.1,12.1,17.4,19.7,24.8h-52.2V1379.3z M1561.2,1379.3h-46c4.9-4.8,9.4-10,13.5-15.6c11-14.9,18.8-32.2,22.3-51.1h10.3v66.7
			H1561.2z M1572.9,1303.2h-32c-0.4,3.2-1,6.4-1.7,9.5c-2.3,10.1-5.8,19.6-10.5,28.5c-19.6,37.1-58.6,62.5-103.3,62.5
			s-83.7-25.4-103.3-62.5c-4.7-8.9-8.2-18.5-10.5-28.5c-0.7-3.1-1.3-6.3-1.7-9.5H1277v-32.6h32.8c0.3-1.8,0.5-3.6,0.8-5.4
			c2.2-11.5,6.1-22.5,11.4-32.6c19.6-37.1,58.6-62.5,103.3-62.5s83.7,25.4,103.3,62.5c5.3,10.1,9.2,21,11.4,32.6
			c0.3,1.8,0.6,3.6,0.8,5.4h32L1572.9,1303.2L1572.9,1303.2z"/>
		<path class="st0" d="M1521.6,1265.1c-10-44-49.3-77-96.3-77c-46.9,0-86.3,33-96.3,77c-1.6,7-2.5,14.3-2.5,21.8
			c0,8.9,1.3,17.5,3.5,25.8c11.4,41.9,49.8,73,95.2,73s83.8-31,95.2-73c2.2-8.2,3.5-16.8,3.5-25.8
			C1524.1,1279.4,1523.2,1272.1,1521.6,1265.1z M1360.9,1265.1c9.1-26.9,34.5-46.3,64.4-46.3s55.3,19.4,64.4,46.3
			c2.3,6.8,3.6,14.1,3.6,21.8c0,9.1-1.8,17.8-5.1,25.8c-10.2,24.8-34.6,42.3-62.9,42.3s-52.7-17.5-62.9-42.3
			c-3.3-8-5.1-16.7-5.1-25.8C1357.3,1279.2,1358.6,1271.9,1360.9,1265.1z M1512.9,1312.6c-11.1,37.9-46.1,65.5-87.6,65.5
			c-25.3,0-48.1-10.3-64.6-26.8c15.8,13,36.1,20.8,58.2,20.8c39.3,0,72.7-24.8,85.8-59.5c3.8-10,5.9-20.9,5.9-32.2
			c0-5.2-0.5-10.3-1.3-15.3c-2.7-16.1-9.6-30.9-19.6-43c11.7,11.6,20.1,26.4,24.2,43c1.7,7,2.7,14.2,2.7,21.8
			C1516.6,1295.8,1515.3,1304.5,1512.9,1312.6z"/>
		<path class="st0" d="M1296.9,1336.7v34.5h25.1C1310.2,1366.6,1301.8,1355.1,1296.9,1336.7z"/>
		<path class="st0" d="M1528.7,1371.2h25.4v-48C1549.8,1343.3,1542.5,1361,1528.7,1371.2z"/>
		<path class="st0" d="M1297.2,1200.7c0,18.4,0,36.8,0,55.2c0,1,5.9,1.9,6.1,0.8l8.6-61.3
			C1310.2,1197.1,1299.5,1201.9,1297.2,1200.7z"/>
	</g>
	<g>
		<path class="st0" d="M2300.4,99l-29.4,29.4l2.4,2.4l-8.1,8.1l-2.4-2.4l-18.6,18.6l2.4,2.4l-8.1,8.1l-2.4-2.4L2025,374.4
			c-5,5-5,13.2,0,18.2l76.6,76.6c3.4,3.4,8.8,3.4,12.1,0l43.4-43.4c7.3-7.3,20.2-6.5,28.8,1.8c-23.7,24.4-50.8,52.5-79,81.8h5.1
			c3.1,0,6.1,0.2,9,0.5c12.9-13.4,25.8-26.6,38.6-39.5l14.6,14.6l-31.2,31.2c6.2,2.8,11.9,6.5,17,10.9l13.8-13.8l12.9,12.9
			l-14.4,14.4c2.9,4,5.4,8.4,7.4,13l31.5-31.5l14.9,14.9c-13.2,13.1-26.7,26.3-40.4,39.4c0.2,2.4,0.4,4.8,0.4,7.2v14.3
			c31-29.9,60.9-58.6,86.5-83.5l2,2c8.6,8.6,9.5,21.7,2.1,29.1l-43.4,43.4c-3.4,3.3-3.3,8.8,0,12.1l76.6,76.6c5,5,13.2,5,18.2,0
			l211.2-211.2l-2.9-2.9l8.1-8.1l2.9,2.9l18.6-18.6l-2.9-2.9l8.1-8.1l2.9,2.9l29.4-29.4C2526.3,277.5,2426,175.7,2300.4,99z
			 M2508.8,303.1l-191.6-183.7C2392.4,162.7,2456.1,216.3,2508.8,303.1z M2291.8,122.2c5-5,13.2-5,18.2,0l238.3,238.3
			c5,5,5,13.2,0,18.2l-11.9,12l-256.5-256.5L2291.8,122.2z M2526.1,456.6c-9.6-8.4-19.4-17.1-29.4-26.2l-195.5,195.5
			c-5,5-13.2,5-18.2,0l-27.1-27.1c-3.4-3.3-3.4-8.8,0-12.2l41.4-41.4c8.7-8.7,7.6-24-2.4-34.1l-9.4-9.4l-35.3-35.3l-51.7-51.7l-7-7
			c-10-10-25.4-11.1-34-2.4l-41.4,41.4c-3.4,3.3-8.8,3.3-12.1,0l-59.3-59.3c-5-5-5-13.2,0-18.2L2235.9,178l5.8-5.8l0.3-0.3
			l256.5,256.5l32.1,32.1C2529.2,459.4,2527.6,458,2526.1,456.6z M2523.5,403.6l-14.2,14.2l-256.5-256.5l9.9-9.9l6.1-6.1l21.6,21.6
			l0,0l4.1,4.1l179.2,179.2l13.3,13.3l0,0l29.4,29.4l0,0l8.9,8.9l32.1,32.1C2546.4,424.3,2535,414.2,2523.5,403.6z"/>
		<path class="st0" d="M2484.4,367.3c-2.6,3.6-5.1,6.2-9.2,8.9c9.8,9.8,19.6,19.6,29.4,29.4c4.7-3,7.2-6,10-10.1
			C2504.7,386.4,2494.6,377,2484.4,367.3z"/>
		<path class="st0" d="M2457,393.5l-194,194c-3.3,3.3-3.3,8.8,0,12.1l17.3,17.3c3.3,3.3,8.8,3.3,12.1,0l195-195l-0.5-0.5
			C2477.1,412.4,2467.1,403.1,2457,393.5z"/>
		<path class="st0" d="M2539.9,358.4c-8-8-15.9-15.9-23.9-23.9c-5,6.9-8,9.3-13.5,13.5c9.8,9.8,19.6,19.6,29.4,29.4
			c3.4-2.6,5.8-4.6,8.1-7C2543.3,367,2543.2,361.7,2539.9,358.4z"/>
		<path class="st0" d="M2482.8,301.3c-4,6.9-7.1,11-14.1,15l19.9,19.9c6.7-4.2,9.9-8.3,14.1-15L2482.8,301.3z"/>
		<path class="st0" d="M2450.6,335.1c-2.1,2.9-4.5,5.4-8.8,7.9l19.9,19.9c4.5-3.1,6.9-5.7,9-8.5
			C2464.1,348.1,2457.4,341.6,2450.6,335.1z"/>
		<path class="st0" d="M2370.2,413.9c11.5-23.7,8.3-54.1-12.3-74.6c-23.2-23.2-65.4-23.2-88.6,0s-24.1,59.2-6.6,83.7
			c-15.2-23.5-12.5-55.3,8.1-75.9c23.7-23.7,62.2-23.7,85.9,0c18.4,18.4,22.4,45.6,12.3,68l-69.3,69.3l-11.9,11.9l1.7,1.7l9.3,9.3
			c3.2,3.2,5.6,7,6.9,11l137.6-137.6c-6.7-6.4-13.5-13-20.3-19.5L2370.2,413.9z"/>
		<path class="st0" d="M2310.2,127.1c-3.1-3.1-7.9-3.4-11.3-0.7c-4.5,3.5-7.3,6.3-10,10.5c5.1,5.1,10.2,10.2,15.2,15.2
			c4.5-6.6,8.7-9.9,16.1-15C2316.9,133.7,2313.6,130.4,2310.2,127.1z"/>
		<path class="st0" d="M2268.7,157.1c-1.9,1.8-3.4,3.6-5.3,6.3c5.1,5.1,10.2,10.2,15.2,15.2c2.1-2.9,3.7-4.8,5.6-6.6
			C2279,167,2273.8,162.1,2268.7,157.1z"/>
		<path class="st0" d="M2050.8,376.1c-3.3,3.3-3.3,8.8,0,12.1l9.2,9.2l198-198c-5.2-5-10.4-10-15.5-15L2050.8,376.1z"/>
		<path class="st0" d="M2064.1,401.5l7.5,7.5l198.2-198.2c-2.6-2.5-5.1-4.9-7.6-7.4L2064.1,401.5z"/>
		<path class="st0" d="M2324.4,141.2c-8.6,6.9-13.2,10.9-16.5,15.8c2.5,2.5,5,5,7.5,7.5c3.7-5.4,8.3-9.6,16.5-15.8
			C2329.4,146.2,2326.9,143.7,2324.4,141.2z"/>
		<path class="st0" d="M2288.4,176.2c-2.3,2.1-4.1,4.2-6.1,7.1c2.5,2.5,5,5,7.5,7.5c2.1-2.9,4-4.9,6.3-7.1
			C2293.6,181.2,2291,178.7,2288.4,176.2z"/>
		<path class="st0" d="M2351.1,349.3c-20.6-20.5-54.1-20.5-74.6,0c-20.6,20.5-20.6,54.1,0,74.6s54.1,20.5,74.6,0
			S2371.6,369.8,2351.1,349.3z"/>
	</g>
	<g>
		<path class="st0" d="M809.5,374.3L598.4,163.2l-2.4,2.4l-8.1-8.1l2.4-2.4l-18.6-18.6l-2.4,2.4l-8.1-8.1l2.4-2.4L534.2,99
			c-125.5,76.7-225.9,178.5-303.3,303.3l29.4,29.4l2.9-2.9l8.1,8.1l-2.9,2.9l18.6,18.6l2.9-2.9l8.1,8.1l-2.9,2.9l211.2,211.2
			c5,5,13.2,5,18.2,0l76.7-76.6c3.3-3.3,3.3-8.8,0-12.1l-43.4-43.4c-7.4-7.4-6.5-20.5,2.1-29.1l2-2c31,30.1,68,65.6,105.8,102.2
			v-21.9c-20.1-19.3-40-38.5-59.3-57.7l14.9-14.9l46.1,46.1c1.1-5.3,2.8-10.5,5.1-15.3l-26.6-26.6l12.9-12.9l23.6,23.6
			c4.2-5.1,9-9.7,14.4-13.6L660.3,485l14.6-14.6c14.1,14.2,28.1,28.6,42.2,43.2c3.8-1.3,7.6-2.4,11.7-3.1
			c-28.7-29.7-56.1-58.3-80.1-83c8.6-8.3,21.4-9.1,28.8-1.8l43.4,43.4c3.3,3.4,8.8,3.4,12.1,0l76.6-76.6
			C814.6,387.5,814.6,379.4,809.5,374.3z M517.4,119.4L325.8,303.1C378.6,216.3,442.3,162.7,517.4,119.4z M286.3,360.6l238.3-238.3
			c5-5,13.2-5,18.2,0l12,12L298.3,390.7l-12-12C281.3,373.8,281.3,365.6,286.3,360.6z M277.2,433.9l32.1-32.1l8.9-8.9l29.4-29.4l0,0
			l13.3-13.3l19.9-19.9l151.7-151.7l7.5-7.5l4.1-4.1l0,0l15.2-15.2l6.4-6.4l16,16L325.4,417.8l-14.2-14.2
			C299.6,414.2,288.3,424.3,277.2,433.9z M790,387.6l-59.2,59.3c-3.3,3.3-8.8,3.3-12.1,0l-41.4-41.4c-8.7-8.7-24-7.6-34,2.4
			l-38.4,38.4l-20.3,20.3l-35.3,35.3l-9.4,9.4c-10,10-11.1,25.4-2.4,34.1l41.4,41.4c3.3,3.3,3.3,8.8,0,12.2l-27.1,27.1
			c-5,5-13.2,5-18.2,0L338,430.4c-10,9.1-19.8,17.8-29.4,26.2c-1.5,1.3-3.1,2.7-4.6,4.1l32.2-32.1L592.6,172l0.3,0.3l5.8,5.8
			L790,369.4C795,374.4,795,382.6,790,387.6z"/>
		<path class="st0" d="M350.3,367.3c2.6,3.6,5,6.2,9.2,8.9c-9.8,9.8-19.6,19.6-29.4,29.4c-4.7-3-7.2-6-10-10.1
			C330,386.4,340,377,350.3,367.3z"/>
		<path class="st0" d="M377.7,393.5l194,194c3.3,3.3,3.3,8.8,0,12.1L554.4,617c-3.3,3.3-8.8,3.3-12.1,0l-195-195l0.5-0.5
			C357.6,412.4,367.6,403.1,377.7,393.5z"/>
		<path class="st0" d="M294.7,358.4c8-8,15.9-15.9,23.9-23.9c5,6.9,8,9.3,13.5,13.5c-9.8,9.8-19.6,19.6-29.4,29.4
			c-3.4-2.6-5.8-4.6-8.1-7C291.4,367,291.4,361.7,294.7,358.4z"/>
		<path class="st0" d="M351.8,301.3c4,6.9,7.1,11,14.1,15L346,336.2c-6.7-4.2-9.9-8.3-14.1-15L351.8,301.3z"/>
		<path class="st0" d="M384,335.1c2.1,2.9,4.5,5.4,8.8,7.9l-20,20c-4.5-3.1-7-5.7-9-8.5C370.5,348.1,377.2,341.6,384,335.1z"/>
		<path class="st0" d="M464.5,413.9c-11.5-23.7-8.3-54.1,12.3-74.6c23.2-23.2,65.4-23.2,88.6,0s24,59.2,6.6,83.7
			c15.2-23.5,12.5-55.3-8.1-75.9c-23.7-23.7-62.2-23.7-85.9,0c-18.4,18.4-22.4,45.6-12.3,68l69.3,69.3l11.8,11.9l-1.7,1.7l-9.3,9.3
			c-3.2,3.2-5.5,7-6.9,11L391.3,380.6c6.7-6.4,13.5-13,20.3-19.5L464.5,413.9z"/>
		<path class="st0" d="M524.4,127.1c3.1-3.1,7.9-3.4,11.3-0.7c4.5,3.5,7.3,6.3,10,10.5c-5.1,5.1-10.2,10.2-15.2,15.2
			c-4.5-6.6-8.7-9.9-16.1-15C517.7,133.7,521.1,130.4,524.4,127.1z"/>
		<path class="st0" d="M566,157.1c1.9,1.8,3.4,3.6,5.3,6.3c-5.1,5.1-10.2,10.2-15.2,15.2c-2.1-2.9-3.7-4.8-5.6-6.6
			C555.6,167,560.8,162.1,566,157.1z"/>
		<path class="st0" d="M783.9,376.1c3.3,3.3,3.3,8.8,0,12.1l-9.2,9.2l-198-198c5.2-5,10.4-10,15.5-15L783.9,376.1z"/>
		<path class="st0" d="M770.6,401.5l-7.5,7.5L564.9,210.9c2.5-2.5,5.1-4.9,7.6-7.4L770.6,401.5z"/>
		<path class="st0" d="M510.3,141.2c8.6,6.9,13.2,10.9,16.5,15.8c-2.5,2.5-5,5-7.5,7.5c-3.7-5.4-8.3-9.6-16.5-15.8
			C505.2,146.2,507.8,143.7,510.3,141.2z"/>
		<path class="st0" d="M546.2,176.2c2.3,2.1,4.1,4.2,6.1,7.1c-2.5,2.5-5,5-7.5,7.5c-2.1-2.9-4-4.9-6.3-7.1
			C541.1,181.2,543.6,178.7,546.2,176.2z"/>
		<path class="st0" d="M483.6,349.3c20.5-20.5,54.1-20.5,74.6,0s20.5,54.1,0,74.6s-54.1,20.5-74.6,0
			C463,403.4,463,369.8,483.6,349.3z"/>
	</g>
	<g>
		<path class="st0" d="M1199.5,342.7c-2.6-6.8-7.2-11.3-13.7-13.6c-5.3-1.8-10.7-1.9-16.3-0.4c-5.3,1.2-10.6,3.7-15.8,7.5
			c-1.5,0.9-2.7,1.8-3.7,2.9c-1,1-2.1,2-3.3,2.9c0.6-0.9,0.9-1.8,1.1-2.6c0.1-0.9,0.4-1.6,0.7-2.2c0.3-0.9,0.6-1.5,0.9-1.8
			c0.9-1.8,1.8-3.5,2.6-5.1s1.8-3.3,2.6-5.1c14.4,1.5,27.4,0.8,39.2-2c11.7-2.8,21.6-6.8,29.7-12.1c8.1-5.3,14.1-11.3,18.1-18
			c4-6.8,5.5-13.5,4.6-20.3s-3.4-11.7-7.7-14.8c-4.3-3.1-9.2-4.8-15-5.3c-5.7-0.4-11.6,0.1-17.6,1.5c-6,1.5-11.4,3.2-16.1,5.3
			c-7,3.5-15.3,9.1-24.9,16.7c-9.5,7.6-18.9,17.6-28,29.9c-5.6-2.4-10.2-4.6-13.9-6.8c-2.5-1.5-5-2.9-7.6-4.3c0.2-0.3,0.4-0.7,0.5-1
			c4.6-8.6,8.9-16,13.2-22c4.3-6,7.6-10.4,9.9-13c0.9-1.5,1.2-2.6,1.1-3.3c-0.2-0.7-0.4-1.4-0.7-2c-2.6-3.2-5.9-6.2-9.7-8.8
			c-2.3-1.5-4.8-2.8-7.5-4c-2.6-1.2-5.6-1.9-8.8-2.2c-1.8-0.3-3.8,0-6.2,0.9c-4.4,1.2-9,3.6-13.9,7.3c-4.8,3.7-9.8,7.9-14.8,12.5
			c-5,4.7-9.8,9.6-14.5,14.8c-4.7,5.1-9,9.8-12.8,13.9c-2.3,2.6-6.5,7.3-12.3,13.9c-5.9,6.6-12.8,14.2-20.7,22.7
			c-9.1-6.8-19.7-12.8-31.9-18s-26.6-9.4-43.4-12.3c-0.3,0-3.4-0.3-9.2-0.9c-5.9-0.6-13-0.8-21.3-0.7c-8.4,0.1-17.3,1.1-26.6,2.9
			c-9.4,1.8-17.8,5-25.1,9.7S847.8,316.6,844,325s-4.3,19.3-1.3,32.8c0.6,2.4,1.3,4.4,2.2,6.2c0.6,1.5,1.5,2.8,2.6,4
			c1.2,1.2,2.8,1.5,4.8,0.9c0.6,0,1.2-0.3,1.8-0.9c1.2-1.2,1.9-2.9,2.2-5.3v-0.9c0-0.6,0.3-1.6,0.9-3.1c0.6-1.5,1.8-3.2,3.5-5.3
			c2.3-2.6,5.7-5.8,10.1-9.5c4.4-3.7,10.1-7.2,17.2-10.6c7-3.4,15.3-6,24.9-7.9c9.5-1.9,20.6-2.4,33.2-1.5
			c11.2,0.9,21.3,2.9,30.4,6.2c9.1,3.2,17.5,7.2,25.1,11.9c-9.7,9.7-20,19.5-31,29.5s-21.9,18.9-32.8,26.9s-21.4,14.3-31.7,19.1
			c-10.3,4.8-19.5,7.1-27.7,6.8h-0.9c-2.3-0.3-4.3-1.1-5.9-2.4c-1.6-1.3-2.7-2.3-3.3-2.9c-1.5-2.6-3.5-3.5-6.2-2.6
			c-1.2,0.3-2,0.8-2.4,1.5s-0.7,1.2-0.7,1.5c0,0.6-0.1,1.1-0.2,1.5c-0.2,0.4-0.2,1-0.2,1.5c0.3,0.3,1.1,2.2,2.4,5.7
			s3.6,7.3,6.8,11.2c3.2,4,7.5,7.6,12.8,11s12,5.1,20.3,5.1c9.1,0,19.4-3.5,30.8-10.4s22.9-15.4,34.3-25.5
			c11.5-10.1,22.2-20.8,32.1-31.9c10-11.1,18.2-20.8,24.7-29.1c7.9,7.6,14.5,15.7,19.6,24.2s9.2,16.3,12.1,23.3
			c1.5,2.4,2.5,4.3,3.1,5.7c0.6,1.5,1.2,2.7,1.8,3.7c0.6,1,1.4,2,2.4,3.1c1,1,2.6,2.4,4.6,4.2c3.5,2.9,7.3,5.1,11.4,6.6
			c3.5,1.5,7.8,2.3,12.8,2.4s10.6-1.3,16.7-4.2c0.9-0.3,1.6-0.9,2.2-1.8c1.2-1.8,1-3.4-0.4-4.8c-0.9-0.9-2.8-2.4-5.7-4.4
			c-2.9-2-5.6-5.4-7.9-10.1s-4-11.1-5.1-19.1c-1-8.1-0.2-18.7,2.4-31.9c2.1-11.5,5.3-22.4,9.7-32.8c1.3-3.1,2.6-6.1,3.9-9
			c3.8,1.2,7.9,2.7,12.4,4.4c1.5,0.6,2.9,1,4.4,1.3s2.9,0.6,4.4,0.9c-3.2,5.9-6.2,12-9,18.3s-5.2,13.1-7.3,20.5
			c-4.4,14.4-5.9,25.5-4.6,33.2s3.6,13.6,6.8,17.4c3.8,4.4,8.9,7,15.4,7.9c1.5,0,2.9,0,4.2,0c1.3,0,2.6-0.1,3.7-0.4
			c1.5-0.6,2.5-1.5,3.1-2.9c0.6-1.3,0.7-2.7,0.4-4.2c-0.3-1.5-0.9-3.2-1.8-5.3c-1.8-5.6-2.7-10.7-2.9-15.4
			c-0.2-4.7-0.1-8.2,0.2-10.6c0-2,0.3-4.3,0.9-6.6c0.6-2.4,1.2-4.7,1.8-7c2.3-3.5,5.3-7,8.8-10.6c5-5.6,9.8-9.8,14.3-12.5
			c4.6-2.8,8.3-3.5,11.2-2c2.6,1.5,3.7,5.6,3.3,12.3c-0.4,6.8-1.6,13.9-3.5,21.4s-4.3,14.2-7,20c-2.8,5.9-5.2,8.5-7.3,7.9
			c-2.3-0.6-3.1-2.1-2.2-4.6s2.1-5.3,3.7-8.4s3-6,4.2-8.8s0.9-4.6-0.9-5.5c-3.2-2-6.5-2.3-9.7-0.7c-3.2,1.6-5.6,3.3-7,5.1
			c-2.1,2.4-3.6,5.2-4.6,8.6s-1.5,6.8-1.3,10.1c0.1,3.4,1.1,6.5,2.9,9.5c1.8,2.9,4.3,5.3,7.5,7s6.5,2.6,9.9,2.6s6.4-0.4,9-1.3
			c3.2-0.9,6-2.2,8.4-4c5.9-4.1,10.7-9.2,14.5-15.4c3.8-6.2,6.6-12.8,8.4-19.8c1.5-5.9,2.1-11.7,2-17.6
			C1203.1,352.7,1201.9,347.4,1199.5,342.7z M1180.6,287.5c5.3-5.1,9.8-8.5,13.4-10.1c3.7-1.6,6.4-1.9,8.4-0.9s3.2,2.1,3.7,3.3
			c0.3,1.5,0,4-0.9,7.5s-2.8,7-5.7,10.6c-2.9,3.5-7,6.8-12.3,9.7c-5.3,2.9-12.2,4.5-20.7,4.8h-4.4
			C1169.1,300.9,1175.3,292.6,1180.6,287.5z M1065.3,332.8c-5,11-8.7,22.1-11,33.2c-2.3-4.1-4.9-8.3-7.7-12.5
			c-2.8-4.3-6.2-8.4-10.3-12.5c6.2-7.6,12.4-15.3,18.7-23.1c6.3-7.8,12.3-14.8,18.1-21.1c5.7-6.3,10.9-11.5,15.6-15.6
			s8.4-6.2,11-6.2c-7,9.1-13.5,18.6-19.4,28.6C1075.2,312.1,1070.2,321.8,1065.3,332.8z"/>
		<path class="st0" d="M1320.1,412.7c-3.8-5-5.7-11.7-5.7-20s1.3-17,4-25.8c0.9-2.4,1.8-4.8,2.9-7.3c1-2.5,2-4.9,2.9-7.3
			c2.1-4.7,4.3-9.1,6.6-13.2c1.2-2.6,2.3-5.9,3.3-9.9s-0.1-7.5-3.3-10.8c-2.6-2.9-5.9-3.9-9.7-2.9c-3.8,1-6.6,2.1-8.4,3.3
			c-0.9,0.6-1.8,1.3-2.9,2c-1,0.7-2,1.4-2.9,2c-3.8,2.9-7.4,6-10.8,9.2s-6.5,6.3-9.5,9.2c-3.2,3.2-6.3,6.8-9.2,10.6
			c1.5-3.2,3.7-7,6.8-11.5c3.1-4.4,5.8-7.9,8.1-10.6c1.5-1.5,1.8-2.9,1.1-4.2c-0.7-1.3-2.3-2.1-4.6-2.4h-0.4h-0.4
			c-4.1-0.6-7.6-0.5-10.3,0.2c-2.8,0.7-5.2,1.7-7.3,2.9c-2.3,1.2-4.3,2.6-5.7,4.4c-2.9,3.2-5.7,6.6-8.4,10.1
			c-2.6,3.5-5.1,6.9-7.5,10.1c-2.6,3.5-5.1,7.2-7.5,11c0.6-1.8,1.2-3.5,2-5.1c0.7-1.6,1.4-3.1,2-4.6c1.8-4.1,3.5-7.9,5.3-11.5
			c1.8-3.5,3.4-6.5,4.8-8.8c2.1-3.5,2.2-6.6,0.4-9.2c-1.8-2.6-3.4-4.4-4.8-5.3c-1.5-1.2-2.6-2-3.5-2.4s-1.6-0.8-2.2-1.1
			c-1.2-0.6-3.2-1.2-6.2-1.8c-2.9-0.6-5.1,0.3-6.6,2.6c-0.6,0.6-3.2,4.9-7.7,13c-4.6,8.1-9.3,19-14.3,32.8c0,0.3-0.1,0.6-0.2,0.9
			c-0.2,0.3-0.2,0.6-0.2,0.9c-0.6,1.5-1.2,3.3-1.8,5.5c-0.6,2.2-1,4.9-1.3,8.1s-0.3,6.9,0,11s1.5,8.1,3.5,12.1
			c2.1,4,5.2,7.5,9.5,10.6s10.1,5.1,17.4,5.9c0.3,0.3,0.7,0.3,1.3,0c1.2-0.6,1.9-1.6,2.2-3.1c0.6-1.2,0.9-2.5,0.9-4
			c0-1.8,0.1-4.3,0.4-7.7c0.3-3.4,0.9-7,1.8-11s2.3-8.1,4.2-12.5c1.9-4.4,4.6-8.8,8.1-13.2c-2.1,5-3.7,9.5-4.8,13.6
			c-0.9,3.5-1.2,7-0.9,10.4c0.3,3.4,1.8,5.8,4.4,7.3c5,2.9,9.8,4.7,14.3,5.3c4.6,0.6,7.1,0,7.7-1.8c0.3-0.9,0.5-2.6,0.7-5.1
			c0.1-2.5,0.5-5.6,1.1-9.2c0.6-3.7,1.8-7.6,3.5-11.9c1.8-4.3,4.3-8.6,7.5-13h0.4c-0.3,0.3-0.4,0.6-0.4,0.9
			c-5,12.6-7.8,23.2-8.4,31.7s-0.6,14.8,0,18.9c0,2.1,1,4,3.1,5.7c3.5,2,7,3.4,10.6,4c3.5,0.6,6.8,0.8,9.9,0.7
			c3.1-0.1,5.9-0.6,8.6-1.3c2.6-0.7,4.8-1.4,6.6-2c1.2-0.6,1.6-1.5,1.3-2.6C1321.2,414.6,1320.7,413.6,1320.1,412.7z"/>
		<path class="st0" d="M1686.9,330.6c-1.2-4.5-3.5-7.7-7-9.5c-4.1-2-8.2-3.1-12.3-3.1s-7.9,0.7-11.4,2.2s-6.8,3.3-9.9,5.5
			s-5.7,4.3-7.7,6.4c2.1-3.5,2.2-6.6,0.4-9.2c-1.8-2.6-3.4-4.4-4.8-5.3c-1.5-1.2-2.6-2-3.5-2.4s-1.6-0.8-2.2-1.1
			c-1.2-0.6-3.2-1.2-6.2-1.8c-2.9-0.6-5.1,0.3-6.6,2.6c-0.6,0.6-2.9,4.5-6.8,11.7c-4,7.2-8.4,17-13.4,29.3c-2,4.8-4.1,9.9-6.1,15.5
			c-0.4,0.4-0.9,0.8-1.4,1.2c-4.1,3.5-8.7,6.8-13.7,9.9s-10.2,5.8-15.6,8.1c-5.4,2.4-10.3,3.6-14.5,3.7c-4.3,0.1-7.7-0.9-10.3-3.1
			c-2.6-2.2-3.8-6.4-3.5-12.5c3.5-0.6,8-1.5,13.4-2.9c5.4-1.3,10.9-4,16.5-8.1c1.5-0.6,2.6-1.3,3.5-2.2s1.9-1.9,3.1-3.1
			c2.1-1.8,4.1-4.1,6.2-7c2.6-3.5,4.9-7.2,6.8-11s3.2-7.5,3.7-11.2c0.6-3.7,0.4-7-0.4-10.1c-0.9-3.1-2.6-5.5-5.3-7.3
			c-4.1-2.6-8.5-3.9-13.2-3.7c-4.7,0.1-9.4,1.3-14.1,3.5s-9.2,5-13.4,8.4c-4.3,3.4-8.1,7-11.7,10.8c-5.9,6.5-11,13.8-15.4,22
			c-1.9,3.5-3.4,6.9-4.8,10.4c-2,1.8-4.4,3.8-7.1,5.9c-3.8,2.9-8.1,5.7-13,8.4c-4.8,2.6-10.1,4.7-15.8,6.2
			c-5.7,1.5-11.8,1.6-18.3,0.4c-4.7-0.9-7.9-3.2-9.5-7s-1.4-10,0.7-18.5c0.9-4.4,2.3-8.6,4.4-12.8c2.1-4.1,4.2-7.6,6.4-10.6
			c2.2-2.9,4.4-5.1,6.6-6.4s3.7-1.4,4.6-0.2c0.9,1.5,1.2,3.4,0.9,5.7c-0.3,2.4-1,4.8-2,7.5c-1,2.6-2.3,5.1-4,7.3
			c-1.6,2.2-3,3.7-4.2,4.6c-2.3,2.4-4,4.7-5.1,7c-1,2.4-1,4.5,0.2,6.6l0.4,0.4c0.9,1.2,2.3,2,4.4,2.4s5.4-0.2,10.1-2
			c4.4-1.5,8.8-4.7,13.2-9.7c4.4-5,7.8-10.4,10.3-16.1s3.7-11.3,3.5-16.7c-0.2-5.4-2.4-9.5-6.8-12.1s-9-3.9-13.7-3.7
			c-4.7,0.1-9.3,1.3-13.9,3.3c-4.6,2.1-8.9,4.8-13,8.1c-4.1,3.4-7.8,7-11,10.8c-3.4,4.1-6.5,8.6-9.4,13.6c-1.6,0.5-3.1,0.9-4.5,1.1
			c-2.8,0.4-5.2,0.7-7.3,0.7c-2.3,0-4.6-0.1-6.6-0.4c0.6-2,1.1-4.7,1.5-7.9c0.4-3.2,0.6-6.6,0.4-10.1s-0.7-7-1.5-10.4
			c-0.9-3.4-2.2-6.2-4-8.6c-1.5-1.5-2.7-2.6-3.7-3.5s-2.3-1.6-3.7-2.2c-1.5-0.6-3.4-0.9-5.7-0.9h-3.1c-7.3,0.6-12.8,5.4-16.3,14.5
			c0-0.6-0.1-1.2-0.2-2c-0.2-0.7-0.8-1.4-2-2c-2.1-2-4.5-2.3-7.3-0.7c-2.8,1.6-5.1,3.2-6.8,4.6c-2.3,2.4-4.6,4.7-6.6,7
			c-2.1,2.4-4,4.7-5.7,7c-5,6.8-9.2,14.5-12.6,23.3s-5.4,17.2-6.2,25.3c-0.7,8.1,0.3,15.1,3.1,21.1c2.8,6,8,9.6,15.6,10.8
			c8.2,0.9,15.6-0.3,22-3.5s12.1-7.3,16.9-12.3s8.9-10.2,12.1-15.6s5.6-9.9,7-13.4c0.3-0.9,0.6-1.7,0.9-2.4c0.3-0.7,0.6-1.4,0.9-2
			l0.9-1.8c0.9,0.3,2.3,0.4,4.4,0.4c3.8,0,7.3-0.5,10.7-1.4c-2.6,6.6-4.3,13.2-4.9,19.6c-0.9,8.4,0.1,15.7,3.1,22
			c2.9,6.3,8.8,10.2,17.6,11.7c11.4,2,21.6,1.5,30.6-1.8c8.9-3.2,16.7-7.5,23.1-13c5.5-4.6,10.2-9.5,14.1-14.5c0,5,0.9,9.7,2.6,14.1
			c2.6,6.6,8.1,11.2,16.3,13.9c8.8,2.9,17.6,2.9,26.4-0.2s16.9-7.5,24.4-13.2c4.1-3.1,7.8-6.3,11.2-9.6c-1.8,5.9-3.5,11.9-5.1,17.8
			c-2.5,9.7-4.3,18.8-5.3,27.3s-0.7,15.1,1.1,19.8l0.9,1.8c0.3,0,0.4,0.1,0.4,0.4c0.6,0.9,1.3,1.9,2.2,3.1c0.9,1.2,2.2,2.5,4,4
			c1.2,1.2,2.9,2.4,5.3,3.5c0.9,0.6,3.3,1.2,7.3,1.8c4,0.6,7.6-0.7,10.8-4c0.3-0.6,0.6-1.2,0.9-1.8c0.3-0.6,0.3-1.2,0-1.8
			c0-1.8-0.2-3.2-0.4-4.4c-0.6-2.4-0.7-9.7-0.2-22c0.4-12.3,3.2-27.6,8.1-45.8c1.5-7.6,4.6-15.5,9.5-23.8
			c4.8-8.2,10.1-15.5,15.8-21.8s11.2-11.2,16.5-14.8s9.2-4.4,11.9-2.6c1.5,1.2,2,3.8,1.5,7.9c-0.4,4.1-1.6,8.8-3.5,14.1
			c-1.9,5.3-4.3,10.9-7,16.7c-2.8,5.9-5.6,11.2-8.4,15.9c-2.8,4.7-5.4,8.5-7.9,11.5c-2.5,2.9-4.5,4.1-5.9,3.5
			c-2.1-0.9-2.5-2.5-1.3-4.8c1.2-2.4,2.8-4.9,4.8-7.7c2.1-2.8,3.8-5.5,5.3-8.1s1.5-4.5,0-5.7c-3.2-2.4-6.5-2.9-9.9-1.8
			c-3.4,1.2-5.9,2.5-7.7,4c-2.3,2.4-4.3,5.1-5.7,8.1c-1.5,3.1-2.3,6.3-2.4,9.7c-0.2,3.4,0.4,6.7,1.5,9.9c1.2,3.2,3.4,5.9,6.6,7.9
			c3.2,2.4,6.4,3.7,9.7,4.2c3.2,0.4,6.2,0.4,8.8-0.2c3.2-0.6,6.2-1.6,8.8-3.1c6.8-3.2,12.3-7.7,16.7-13.4c4.4-5.7,8.1-12,11-18.7
			c1.8-4.7,3.4-10.1,5.1-16.3c1.6-6.2,2.6-12.1,2.9-17.8C1688.5,340.3,1688,335.2,1686.9,330.6z M1531,364.5c0-1,0.3-2.1,0.9-3.3
			c1.2-4.4,2.9-8.7,5.3-13c2.3-4.3,4.7-7.9,7-10.8s4.6-5.1,6.8-6.4s3.7-1.3,4.6,0.2c1.5,1.8,1.6,4.3,0.4,7.7
			c-1.2,3.4-2.8,6.7-4.8,9.9c-0.9,1.8-2.9,4.3-6.2,7.5l-3.1,3.1c-1.5,1.5-3.2,2.9-5.1,4.2c-1.9,1.3-4.2,2.7-6.8,4.2
			C1530.7,366.6,1531,365.5,1531,364.5z M1379.6,364.7c-4.1,6.2-7.6,10.6-10.6,13.2c-2.3,2.6-5.1,5.1-8.4,7.5
			c-3.2,2.4-6.2,3.2-8.8,2.6c-4.1-0.9-6-3.7-5.7-8.6c0.3-4.8,1.2-9.6,2.6-14.3c1.2-4.1,2.3-7.8,3.5-11s2.3-6,3.5-8.4
			c0.9-1.8,1.9-3.5,3.1-5.3s2.2-3.4,3.1-4.8c1.2-1.5,2.2-3.1,3.1-4.8c2.1-2.4,3.4-4.3,4-5.7c-0.3,1.5-0.6,2.8-0.9,4s-0.4,2.5-0.4,4
			c-0.6,1.8-0.7,3.1-0.4,4c0,2.1,0.2,4,0.4,5.7c0.3,1.8,0.6,3.4,0.9,4.8c0.9,2.9,2,5.4,3.3,7.3s2.7,3.5,4.2,4.6
			c1.5,1.5,3.1,2.6,4.8,3.5C1380.9,363.3,1380.5,363.8,1379.6,364.7z M1389.3,344.5c-0.9-0.3-1.9-0.9-3.1-1.8
			c-2.3-1.8-3.7-3.8-4-6.2c-0.6-2.9-0.5-6,0.2-9.2s2.3-5,4.6-5.3s3.8,2.1,4.4,7C1392.1,334.1,1391.3,339.2,1389.3,344.5z"/>
		<path class="st0" d="M1780.6,342.7c-2.6-6.8-7.2-11.3-13.7-13.6c-5.3-1.8-10.7-1.9-16.3-0.4c-5.3,1.2-10.6,3.7-15.8,7.5
			c-1.5,0.9-2.7,1.8-3.7,2.9c-1,1-2.1,2-3.3,2.9c0.6-0.9,0.9-1.8,1.1-2.6c0.1-0.9,0.4-1.6,0.7-2.2c0.3-0.9,0.6-1.5,0.9-1.8
			c0.9-1.8,1.8-3.5,2.6-5.1s1.8-3.3,2.6-5.1c14.4,1.5,27.4,0.8,39.2-2c11.7-2.8,21.6-6.8,29.7-12.1c8.1-5.3,14.1-11.3,18.1-18
			c4-6.8,5.5-13.5,4.6-20.3s-3.4-11.7-7.7-14.8c-4.3-3.1-9.2-4.8-15-5.3c-5.7-0.4-11.6,0.1-17.6,1.5c-6,1.5-11.4,3.2-16.1,5.3
			c-7,3.5-15.3,9.1-24.9,16.7c-9.5,7.6-18.9,17.6-28,29.9c-5.6-2.4-10.2-4.6-13.9-6.8s-7.4-4.3-11.2-6.2c-3.8-1.9-8.1-3.6-12.8-5.1
			c-4.7-1.5-10.7-2.5-18.1-3.1c-10.3-0.9-18.4,0.4-24.4,4s-10.5,7.3-13.4,11.5c-1.8,1.5-2.9,3-3.5,4.6s1.6,2.4,6.6,2.4
			c7.9-0.3,17.8-0.2,29.5,0.2s26.1,3.9,43.1,10.4c1.5,0.6,2.9,1,4.4,1.3s2.9,0.6,4.4,0.9c-3.2,5.9-6.2,12-9,18.3s-5.2,13.1-7.3,20.5
			c-4.4,14.4-5.9,25.5-4.6,33.2s3.6,13.6,6.8,17.4c3.8,4.4,8.9,7,15.4,7.9c1.5,0,2.9,0,4.2,0c1.3,0,2.6-0.1,3.7-0.4
			c1.5-0.6,2.5-1.5,3.1-2.9c0.6-1.3,0.7-2.7,0.4-4.2c-0.3-1.5-0.9-3.2-1.8-5.3c-1.8-5.6-2.7-10.7-2.9-15.4
			c-0.2-4.7-0.1-8.2,0.2-10.6c0-2,0.3-4.3,0.9-6.6c0.6-2.4,1.2-4.7,1.8-7c2.3-3.5,5.3-7,8.8-10.6c5-5.6,9.8-9.8,14.3-12.5
			c4.6-2.8,8.3-3.5,11.2-2c2.6,1.5,3.7,5.6,3.3,12.3c-0.4,6.8-1.6,13.9-3.5,21.4s-4.3,14.2-7,20c-2.8,5.9-5.2,8.5-7.3,7.9
			c-2.3-0.6-3.1-2.1-2.2-4.6s2.1-5.3,3.7-8.4s3-6,4.2-8.8s0.9-4.6-0.9-5.5c-3.2-2-6.5-2.3-9.7-0.7c-3.2,1.6-5.6,3.3-7,5.1
			c-2.1,2.4-3.6,5.2-4.6,8.6s-1.5,6.8-1.3,10.1c0.1,3.4,1.1,6.5,2.9,9.5c1.8,2.9,4.3,5.3,7.5,7s6.5,2.6,9.9,2.6s6.4-0.4,9-1.3
			c3.2-0.9,6-2.2,8.4-4c5.9-4.1,10.7-9.2,14.5-15.4c3.8-6.2,6.6-12.8,8.4-19.8c1.5-5.9,2.1-11.7,2-17.6
			C1784.2,352.7,1783,347.4,1780.6,342.7z M1761.7,287.5c5.3-5.1,9.8-8.5,13.4-10.1c3.7-1.6,6.4-1.9,8.4-0.9s3.2,2.1,3.7,3.3
			c0.3,1.5,0,4-0.9,7.5s-2.8,7-5.7,10.6c-2.9,3.5-7,6.8-12.3,9.7c-5.3,2.9-12.2,4.5-20.7,4.8h-4.4
			C1750.3,300.9,1756.4,292.6,1761.7,287.5z"/>
		<path class="st0" d="M1880.8,359.7c1-2.5,2.1-4.9,3.3-7.3c1.5-4.1,3.2-7.9,5.1-11.5c1.9-3.5,3.6-6.5,5.1-8.8
			c1.5-2.6,1.6-5.4,0.4-8.4c0-0.3-0.2-0.4-0.4-0.4v-0.4l-2.6-4l-0.9-0.4c-0.3,0-0.4-0.1-0.4-0.4c-1.5-1.5-2.8-2.4-4-2.9
			c-1.2-0.4-2.2-0.8-3.1-1.1c-1.2-0.3-2.1-0.3-2.6,0c-2.3,1.2-3.7,2.1-4,2.6h-0.4c-3.5,3.2-6.8,7-9.7,11.2s-5.3,8-7,11.2
			c-2.3,4.1-5.1,8.7-8.1,13.9c-3.1,5.1-6.2,10.1-9.5,15c-3.2,4.8-6.4,9-9.5,12.5s-5.7,5.7-7.7,6.6c-0.3,0.3-0.7,0.4-1.3,0.4
			c-2.1-0.3-3.4-1.5-4-3.7s-0.8-4.7-0.7-7.5c0.1-2.8,0.6-5.6,1.3-8.4c0.7-2.8,1.3-4.9,1.5-6.4c0-0.3,0.1-0.4,0.2-0.4
			s0.2-0.1,0.2-0.4c0.6-1.5,1.2-2.9,1.8-4.2c0.6-1.3,1.2-2.7,1.8-4.2c1.8-4.1,3.5-7.9,5.3-11.5c1.8-3.5,3.4-6.5,4.8-8.8
			c1.8-3.5,1.8-6.6,0-9.2s-3.2-4.4-4.4-5.3c-2.1-1.8-4.1-2.9-6.2-3.5c-0.9-0.6-2.8-1.2-5.7-1.8c-2.9-0.6-5.1,0.3-6.6,2.6
			c-0.6,0.6-3.2,4.9-7.7,13c-4.6,8.1-9.3,19-14.3,32.8c0,0.3-0.1,0.6-0.2,0.9c-0.2,0.3-0.2,0.6-0.2,0.9c-0.9,1.5-1.5,3.1-1.8,4.8
			c-5,16.7-5.3,29.4-1.1,37.9c4.3,8.5,12,12.3,23.1,11.5c1.5,0,2.9-0.4,4.4-1.3c2.1-0.3,4.3-1.5,6.6-3.5c3.5-2.6,7-6.2,10.3-10.6
			c3.4-4.4,6.7-9.1,9.9-14.1c-0.9,5.9-1.3,10.8-1.3,14.8s0.1,7.1,0.4,9.5c0,2.1,1,4,3.1,5.7c3.5,2,7,3.4,10.6,4
			c3.5,0.6,6.8,0.8,9.9,0.7c3.1-0.1,5.9-0.6,8.6-1.3c2.6-0.7,4.8-1.4,6.6-2c1.5-0.6,2-1.5,1.5-2.6s-1-2.2-1.5-3.1
			c-3.8-5-5.7-11.7-5.7-20s1.5-17,4.4-25.8C1879,364.6,1879.8,362.2,1880.8,359.7z"/>
		<path class="st0" d="M1987.6,364.3c-0.9-0.6-1.8-0.7-2.9-0.4c-1,0.3-1.8,0.7-2.4,1.3c-2.3,2.4-5.4,5-9.2,7.9
			c-3.8,2.9-8.1,5.7-13,8.4c-4.8,2.6-10.1,4.7-15.8,6.2c-5.7,1.5-11.8,1.6-18.3,0.4c-4.7-0.9-7.9-3.2-9.5-7s-1.4-10,0.7-18.5
			c0.9-4.4,2.3-8.6,4.4-12.8c2.1-4.1,4.2-7.6,6.4-10.6c2.2-2.9,4.4-5.1,6.6-6.4s3.7-1.4,4.6-0.2c0.9,1.5,1.2,3.4,0.9,5.7
			c-0.3,2.4-1,4.8-2,7.5c-1,2.6-2.3,5.1-4,7.3c-1.6,2.2-3,3.7-4.2,4.6c-2.3,2.4-4,4.7-5.1,7c-1,2.4-1,4.5,0.2,6.6l0.4,0.4
			c0.9,1.2,2.3,2,4.4,2.4s5.4-0.2,10.1-2c4.4-1.5,8.8-4.7,13.2-9.7c4.4-5,7.8-10.4,10.3-16.1s3.7-11.3,3.5-16.7
			c-0.2-5.4-2.4-9.5-6.8-12.1s-9-3.9-13.7-3.7c-4.7,0.1-9.3,1.3-13.9,3.3c-4.6,2.1-8.9,4.8-13,8.1c-4.1,3.4-7.8,7-11,10.8
			c-5.3,6.5-10,14-14.1,22.7s-6.6,17.2-7.5,25.5s0.1,15.7,3.1,22c2.9,6.3,8.8,10.2,17.6,11.7c11.4,2,21.6,1.5,30.6-1.8
			c8.9-3.2,16.7-7.5,23.1-13c6.4-5.4,11.8-11.1,16.1-17.2c4.3-6,7.4-10.8,9.5-14.3C1989.2,368.5,1989.3,366,1987.6,364.3z"/>
	</g>
	<g>
		<path class="st0" d="M1047.5,660.9l-36.9,275.3c1.2-0.6,2.6-1.2,4-1.8c9.6-3.7,20.1-5.6,31.3-5.6h42.7L1047.5,660.9z
			 M1047.5,660.9l-36.9,275.3c1.2-0.6,2.6-1.2,4-1.8c9.6-3.7,20.1-5.6,31.3-5.6h42.7L1047.5,660.9z M1047.5,660.9l-36.9,275.3
			c1.2-0.6,2.6-1.2,4-1.8c9.6-3.7,20.1-5.6,31.3-5.6h42.7L1047.5,660.9z M1349,656.4c-3-17.7-7-30.6-12.1-38.3
			c-4.7-7.1-9.9-10.9-16.1-11.6c-5.9-0.6-12-1-18.3-1.2l0.7,284.5c4.5-2.2,10.9-3.2,19.3-3.2c7.4,0,13.2-1.1,17.3-3.3
			c2.4-1.3,5.7-5.1,8.3-16.1c2.3-10,3.9-25.3,4.5-45.5c0.7-20.6,1-49.2,1-85C1353.6,701.6,1352,674.6,1349,656.4z M1505.4,660.9
			l-36.9,275.3c1.2-0.6,2.6-1.2,4-1.8c9.6-3.7,20.1-5.6,31.3-5.6h42.8L1505.4,660.9z M1505.4,660.9l-36.9,275.3
			c1.2-0.6,2.6-1.2,4-1.8c9.6-3.7,20.1-5.6,31.3-5.6h42.8L1505.4,660.9z M1349,656.4c-3-17.7-7-30.6-12.1-38.3
			c-4.7-7.1-9.9-10.9-16.1-11.6c-5.9-0.6-12-1-18.3-1.2l0.7,284.5c4.5-2.2,10.9-3.2,19.3-3.2c7.4,0,13.2-1.1,17.3-3.3
			c2.4-1.3,5.7-5.1,8.3-16.1c2.3-10,3.9-25.3,4.5-45.5c0.7-20.6,1-49.2,1-85C1353.6,701.6,1352,674.6,1349,656.4z M1047.5,660.9
			l-36.9,275.3c1.2-0.6,2.6-1.2,4-1.8c9.6-3.7,20.1-5.6,31.3-5.6h42.7L1047.5,660.9z M1047.5,660.9l-36.9,275.3
			c1.2-0.6,2.6-1.2,4-1.8c9.6-3.7,20.1-5.6,31.3-5.6h42.7L1047.5,660.9z M1349,656.4c-3-17.7-7-30.6-12.1-38.3
			c-4.7-7.1-9.9-10.9-16.1-11.6c-5.9-0.6-12-1-18.3-1.2l0.7,284.5c4.5-2.2,10.9-3.2,19.3-3.2c7.4,0,13.2-1.1,17.3-3.3
			c2.4-1.3,5.7-5.1,8.3-16.1c2.3-10,3.9-25.3,4.5-45.5c0.7-20.6,1-49.2,1-85C1353.6,701.6,1352,674.6,1349,656.4z M1505.4,660.9
			l-36.9,275.3c1.2-0.6,2.6-1.2,4-1.8c9.6-3.7,20.1-5.6,31.3-5.6h42.8L1505.4,660.9z M1505.4,660.9l-36.9,275.3
			c1.2-0.6,2.6-1.2,4-1.8c9.6-3.7,20.1-5.6,31.3-5.6h42.8L1505.4,660.9z M1349,656.4c-3-17.7-7-30.6-12.1-38.3
			c-4.7-7.1-9.9-10.9-16.1-11.6c-5.9-0.6-12-1-18.3-1.2l0.7,284.5c4.5-2.2,10.9-3.2,19.3-3.2c7.4,0,13.2-1.1,17.3-3.3
			c2.4-1.3,5.7-5.1,8.3-16.1c2.3-10,3.9-25.3,4.5-45.5c0.7-20.6,1-49.2,1-85C1353.6,701.6,1352,674.6,1349,656.4z M1047.5,660.9
			l-36.9,275.3c1.2-0.6,2.6-1.2,4-1.8c9.6-3.7,20.1-5.6,31.3-5.6h42.7L1047.5,660.9z M1047.5,660.9l-36.9,275.3
			c1.2-0.6,2.6-1.2,4-1.8c9.6-3.7,20.1-5.6,31.3-5.6h42.7L1047.5,660.9z M1349,656.4c-3-17.7-7-30.6-12.1-38.3
			c-4.7-7.1-9.9-10.9-16.1-11.6c-5.9-0.6-12-1-18.3-1.2l0.7,284.5c4.5-2.2,10.9-3.2,19.3-3.2c7.4,0,13.2-1.1,17.3-3.3
			c2.4-1.3,5.7-5.1,8.3-16.1c2.3-10,3.9-25.3,4.5-45.5c0.7-20.6,1-49.2,1-85C1353.6,701.6,1352,674.6,1349,656.4z M1505.4,660.9
			l-36.9,275.3c1.2-0.6,2.6-1.2,4-1.8c9.6-3.7,20.1-5.6,31.3-5.6h42.8L1505.4,660.9z M1505.4,660.9l-36.9,275.3
			c1.2-0.6,2.6-1.2,4-1.8c9.6-3.7,20.1-5.6,31.3-5.6h42.8L1505.4,660.9z M1349,656.4c-3-17.7-7-30.6-12.1-38.3
			c-4.7-7.1-9.9-10.9-16.1-11.6c-5.9-0.6-12-1-18.3-1.2l0.7,284.5c4.5-2.2,10.9-3.2,19.3-3.2c7.4,0,13.2-1.1,17.3-3.3
			c2.4-1.3,5.7-5.1,8.3-16.1c2.3-10,3.9-25.3,4.5-45.5c0.7-20.6,1-49.2,1-85C1353.6,701.6,1352,674.6,1349,656.4z M1047.5,660.9
			l-36.9,275.3c1.2-0.6,2.6-1.2,4-1.8c9.6-3.7,20.1-5.6,31.3-5.6h42.7L1047.5,660.9z M2112.1,509.5H741.8
			c-40.9,0-74.1,33.1-74.1,74.1v478.2c0,40.9,33.1,74.1,74.1,74.1h1370.3c41,0,74.2-33.2,74.1-74.1V583.6
			C2186.2,542.7,2153,509.5,2112.1,509.5z M734.9,881.7c-22.3,0-40.4-18.1-40.4-40.4s18.1-40.4,40.4-40.4c0.8,0,1.7,0,2.5,0.1
			c-21.2,1.3-37.9,18.8-37.9,40.3s16.7,39.1,37.9,40.3C736.6,881.7,735.8,881.7,734.9,881.7z M737.4,874.8
			c-18.5,0-33.5-15-33.5-33.5c0-18.5,15-33.5,33.5-33.5s33.5,15,33.5,33.5C770.9,859.8,755.9,874.8,737.4,874.8z M962.7,632.3h-19.6
			v-27.1h-52.4l0.7,435.7h13.2v18.3h-94.2v-18.3h16.5V605.2h-16.5v-18.3h152.3V632.3z M1194.2,1059.1h-104.7v-17h15.7l-13.7-96.5
			h-48.3c-3.7,0-7.7,0.3-12.1,0.9c-4.1,0.6-8,1.7-11.7,3.5c-3.6,1.6-6.5,3.9-8.9,6.6c-2.2,2.5-3.4,5.7-3.7,9.9v0.3l-9.8,75.3h10.5
			v17h-33.2c-2.9,0-9.5,0-9.5-5.8v-11.1H976c0.4-2.9,1-7.7,2.1-15.6c1.7-13,4-29.9,6.9-50.8c2.8-20.3,5.9-43.7,9.6-71.6
			c3.4-25.8,7-53.3,10.6-81.8c8.1-64,17.3-136.4,27.6-217.2H1017v-18.3h80.7l82.4,455.2h14.1V1059.1z M1412.5,830
			c-1.6,22.9-5.4,39.6-11.5,50.9c-6.5,12-16.7,19.3-30.4,21.8c-12.4,2.3-29.4,3.4-50.8,3.4c-6.2,0-10.4,1.5-12.7,4.5
			c-2.6,3.5-3.9,9.1-3.9,16.7V1041h13.2v18.3h-94.2V1041h16.5V605.3h-16.5V587h75.1c21.2,0,39.3,0.8,54,2.3
			c15.6,1.7,28.5,7.6,38.1,17.4c9.5,9.7,16.2,25,20,45.5c3.6,19.8,5.4,48.2,5.4,84.4C1414.8,776.5,1414,807.9,1412.5,830z
			 M1652.2,1059.2h-104.7v-17h15.7l-13.7-96.5h-48.3c-3.7,0-7.7,0.3-12.1,0.9c-4.1,0.6-8,1.7-11.7,3.5c-3.6,1.6-6.5,3.9-8.9,6.6
			c-2.1,2.5-3.4,5.7-3.7,9.9v0.2l-9.8,75.3h10.4v17h-33.2c-2.9,0-9.5,0-9.5-5.8v-11.1h11.2c0.4-2.9,1-7.7,2.1-15.6
			c1.7-13,4-29.9,6.9-50.8c2.8-20.5,6-43.9,9.6-71.6c3.4-25.5,6.8-52.3,10.6-81.8c8.1-64,17.3-136.4,27.6-217.2h-15.8v-18.3h80.8
			l82.4,455.3h14.1V1059.2z M2042.9,1058.8h-5.2c-21.9,0-39.2-3.4-51.3-9.9c-12.4-6.7-21.6-16.6-27.3-29.5
			c-5.5-12.5-8.6-27.8-9.3-45.5c-0.7-17.1-1-36.9-1-58.9c0-25.7-2.4-45.4-7-58.7c-4.5-12.9-10-22.3-16.3-27.8
			c-6.2-5.5-12.6-8.4-19.4-9c-5.4-0.5-10.4-0.8-14.8-0.9l0.6,221.8h13.2v18.3h-94.2v-18.3h16.5V817.9c-4.4,0.1-9.3,0.4-14.8,0.9
			c-6.7,0.6-13.2,3.6-19.4,9c-6.3,5.5-11.8,14.9-16.3,27.8c-4.7,13.2-7,33-7,58.7c0,21.9-0.3,41.8-1,58.9
			c-0.6,17.8-3.8,33.1-9.3,45.5c-5.7,12.9-14.9,22.8-27.3,29.5c-12.3,6.7-29.1,9.9-51.3,9.9h-5.2v-18.9h5.2c6.6,0,11.4-2.2,14.6-6.5
			c3.6-5,6.2-12.5,7.6-22.4c1.5-10.5,2.3-23.9,2.3-39.8c0-16.4,0.3-35.3,0.7-56.1c0-19.2,1.7-36.3,5.1-50.9
			c3.5-15,9.6-27.8,18.3-37.8c8.7-10.1,20.4-17.7,34.6-22.6c5.1-1.7,10.8-3.2,16.9-4.3c-1.1-0.7-2.1-1.5-3.1-2.3
			c-7.5-6.5-12.4-16.2-14.6-28.8c-2-11.6-3.3-26.3-4-43.6c-0.7-16.8-3.2-36.5-7.5-58.6c-2.5-13.6-5.1-23.2-7.5-28.5
			c-2.3-5-4.1-6.2-4.6-6.3c-2-0.3-4.3,1.2-5.9,2.5c-3.8,3.1-8,5.9-12.4,8.2c-5,2.7-10.5,3.9-16.2,3.6c-6.4-0.3-12.6-4-18.9-11.4
			c-5.9-6.9-8.2-14.3-6.8-21.8c1.3-7.1,4.7-13,10-17.5c5.2-4.4,11.9-7.1,19.9-8.1c8.2-1,16.5,1,24.8,6c8,4.9,15.3,13,21.9,24.3
			c6.4,11,11.5,26.2,15.1,45.2c5.3,26.1,8.3,48,8.7,65.2c0.5,16.5,1.9,29.9,4.2,39.9c2.1,9,6.1,15,12.1,18.5
			c4.1,2.3,12.8,5.1,31.5,5.5V605.2h-16.5v-18.3h94.2v18.3h-13.9v186.6c15.2-0.3,25.9-2.2,31.9-5.5c6.3-3.5,10.4-9.5,12.7-18.5
			c2.5-9.9,4.2-23.4,5.1-39.9c0.9-17.1,4-38.9,9.3-65c3.1-19,8.1-34.2,14.8-45.3c6.8-11.2,14.2-19.4,22.2-24.2c8.3-5,16.6-7,24.8-6
			c8.1,1,14.7,3.7,19.9,8.1c5.3,4.5,8.7,10.4,10,17.5c1.3,7.5-0.9,14.9-6.8,21.8l-0.2,0.2c-6.8,7.2-13,10.9-19.1,11.2
			c-5.6,0.2-10.9-1-15.9-3.6c-4.5-2.4-8.6-5.1-12.4-8.2c-1.6-1.3-3.9-2.8-5.9-2.5c-0.5,0.1-2.3,1.4-4.6,6.3
			c-2.4,5.3-4.9,14.9-7.5,28.5v0.1c-4.7,22-7.4,41.7-8.1,58.5c-0.6,17.4-2.2,32.1-4.7,43.8c-2.7,12.5-7.9,22.1-15.6,28.6
			c-1,0.8-2.1,1.6-3.2,2.3c6,1.1,11.6,2.5,16.7,4.3c14.3,4.9,25.9,12.5,34.6,22.6c8.7,10,14.8,22.8,18.3,37.8
			c3.4,14.6,5.1,31.7,5.1,50.9c0.5,21.3,0.7,40.2,0.7,56.1c0,16,0.8,29.4,2.3,39.8c1.4,9.9,3.9,17.5,7.4,22.5
			c3,4.2,7.8,6.3,14.9,6.3v-0.4h4.6V1058.8z M2122,881.7c-22.3,0-40.4-18.1-40.4-40.4s18.1-40.4,40.4-40.4c0.8,0,1.7,0,2.5,0.1
			c-21.2,1.3-37.9,18.8-37.9,40.3s16.7,39.1,37.9,40.3C2123.7,881.7,2122.9,881.7,2122,881.7z M2124.5,874.8
			c-18.5,0-33.5-15-33.5-33.5c0-18.5,15-33.5,33.5-33.5s33.5,15,33.5,33.5C2158,859.8,2143,874.8,2124.5,874.8z M1468.5,936.2
			c1.2-0.6,2.6-1.2,4-1.8c9.6-3.7,20.1-5.6,31.3-5.6h42.8l-41.2-267.9L1468.5,936.2z M1336.9,618.1c-4.7-7.1-9.9-10.9-16.1-11.6
			c-5.9-0.6-12-1-18.3-1.2l0.7,284.5c4.5-2.2,10.9-3.2,19.3-3.2c7.4,0,13.2-1.1,17.3-3.3c2.4-1.3,5.7-5.1,8.3-16.1
			c2.3-10,3.9-25.3,4.5-45.5c0.7-20.6,1-49.2,1-85c0-35.1-1.6-62.1-4.6-80.3C1346,638.7,1342,625.8,1336.9,618.1z M1010.6,936.2
			c1.2-0.6,2.6-1.2,4-1.8c9.6-3.7,20.1-5.6,31.3-5.6h42.7l-41.1-267.9L1010.6,936.2z M1047.5,660.9l-36.9,275.3
			c1.2-0.6,2.6-1.2,4-1.8c9.6-3.7,20.1-5.6,31.3-5.6h42.7L1047.5,660.9z M1349,656.4c-3-17.7-7-30.6-12.1-38.3
			c-4.7-7.1-9.9-10.9-16.1-11.6c-5.9-0.6-12-1-18.3-1.2l0.7,284.5c4.5-2.2,10.9-3.2,19.3-3.2c7.4,0,13.2-1.1,17.3-3.3
			c2.4-1.3,5.7-5.1,8.3-16.1c2.3-10,3.9-25.3,4.5-45.5c0.7-20.6,1-49.2,1-85C1353.6,701.6,1352,674.6,1349,656.4z M1505.4,660.9
			l-36.9,275.3c1.2-0.6,2.6-1.2,4-1.8c9.6-3.7,20.1-5.6,31.3-5.6h42.8L1505.4,660.9z M1505.4,660.9l-36.9,275.3
			c1.2-0.6,2.6-1.2,4-1.8c9.6-3.7,20.1-5.6,31.3-5.6h42.8L1505.4,660.9z M1349,656.4c-3-17.7-7-30.6-12.1-38.3
			c-4.7-7.1-9.9-10.9-16.1-11.6c-5.9-0.6-12-1-18.3-1.2l0.7,284.5c4.5-2.2,10.9-3.2,19.3-3.2c7.4,0,13.2-1.1,17.3-3.3
			c2.4-1.3,5.7-5.1,8.3-16.1c2.3-10,3.9-25.3,4.5-45.5c0.7-20.6,1-49.2,1-85C1353.6,701.6,1352,674.6,1349,656.4z M1047.5,660.9
			l-36.9,275.3c1.2-0.6,2.6-1.2,4-1.8c9.6-3.7,20.1-5.6,31.3-5.6h42.7L1047.5,660.9z M1047.5,660.9l-36.9,275.3
			c1.2-0.6,2.6-1.2,4-1.8c9.6-3.7,20.1-5.6,31.3-5.6h42.7L1047.5,660.9z M1349,656.4c-3-17.7-7-30.6-12.1-38.3
			c-4.7-7.1-9.9-10.9-16.1-11.6c-5.9-0.6-12-1-18.3-1.2l0.7,284.5c4.5-2.2,10.9-3.2,19.3-3.2c7.4,0,13.2-1.1,17.3-3.3
			c2.4-1.3,5.7-5.1,8.3-16.1c2.3-10,3.9-25.3,4.5-45.5c0.7-20.6,1-49.2,1-85C1353.6,701.6,1352,674.6,1349,656.4z M1505.4,660.9
			l-36.9,275.3c1.2-0.6,2.6-1.2,4-1.8c9.6-3.7,20.1-5.6,31.3-5.6h42.8L1505.4,660.9z M1505.4,660.9l-36.9,275.3
			c1.2-0.6,2.6-1.2,4-1.8c9.6-3.7,20.1-5.6,31.3-5.6h42.8L1505.4,660.9z M1349,656.4c-3-17.7-7-30.6-12.1-38.3
			c-4.7-7.1-9.9-10.9-16.1-11.6c-5.9-0.6-12-1-18.3-1.2l0.7,284.5c4.5-2.2,10.9-3.2,19.3-3.2c7.4,0,13.2-1.1,17.3-3.3
			c2.4-1.3,5.7-5.1,8.3-16.1c2.3-10,3.9-25.3,4.5-45.5c0.7-20.6,1-49.2,1-85C1353.6,701.6,1352,674.6,1349,656.4z M1047.5,660.9
			l-36.9,275.3c1.2-0.6,2.6-1.2,4-1.8c9.6-3.7,20.1-5.6,31.3-5.6h42.7L1047.5,660.9z M1047.5,660.9l-36.9,275.3
			c1.2-0.6,2.6-1.2,4-1.8c9.6-3.7,20.1-5.6,31.3-5.6h42.7L1047.5,660.9z M1349,656.4c-3-17.7-7-30.6-12.1-38.3
			c-4.7-7.1-9.9-10.9-16.1-11.6c-5.9-0.6-12-1-18.3-1.2l0.7,284.5c4.5-2.2,10.9-3.2,19.3-3.2c7.4,0,13.2-1.1,17.3-3.3
			c2.4-1.3,5.7-5.1,8.3-16.1c2.3-10,3.9-25.3,4.5-45.5c0.7-20.6,1-49.2,1-85C1353.6,701.6,1352,674.6,1349,656.4z M1349,656.4
			c-3-17.7-7-30.6-12.1-38.3c-4.7-7.1-9.9-10.9-16.1-11.6c-5.9-0.6-12-1-18.3-1.2l0.7,284.5c4.5-2.2,10.9-3.2,19.3-3.2
			c7.4,0,13.2-1.1,17.3-3.3c2.4-1.3,5.7-5.1,8.3-16.1c2.3-10,3.9-25.3,4.5-45.5c0.7-20.6,1-49.2,1-85
			C1353.6,701.6,1352,674.6,1349,656.4z M1047.5,660.9l-36.9,275.3c1.2-0.6,2.6-1.2,4-1.8c9.6-3.7,20.1-5.6,31.3-5.6h42.7
			L1047.5,660.9z"/>
	</g>
	<g>
		<g>
			<path class="st0" d="M1146.7,1350c-1.8-1.5-4.1-1.4-6.8,0.3c-2.2,1.4-3.4,2.8-3.7,4c-0.3,1.2-0.1,2.4,0.4,3.7
				c0.6,1.2,1.4,2.3,2.4,3.3s1.8,2,2.3,2.9s0.5,1.8-0.1,2.6c-0.6,0.8-2.2,1.5-4.7,2c-2,0.3-4.1,0-6.3-1c-2.2-0.9-4.5-2.2-6.8-3.8
				c-2.6-1.6-5.2-2.6-7.7-3c-2.3-0.3-4.7,0-7.2,1c-2.5,0.9-4.8,3.1-7,6.6c-0.6-4.6,0.3-9.9,2.7-15.9c2.4-6,5.6-13.1,9.8-21.3
				c4.2-8.2,8.8-17.6,14.1-28.2c5.2-10.7,10.4-22.9,15.6-36.6c1.6-4,2.5-8.7,2.7-14s-0.5-10.3-2.3-15c-1.7-4.7-4.6-8.7-8.6-11.9
				c-4-3.2-9.4-4.8-16.3-4.8c-4.7,0-8.5,0.7-11.4,2.2s-5,3.2-6.4,5.2s-2.2,4.1-2.4,6.3c-0.1,2.2,0.2,4.2,1,5.8
				c0.8,1.7,2,2.8,3.5,3.3c1.6,0.6,3.4,0.2,5.4-1.1c2.4-1.4,3.7-2.9,3.9-4.3s-0.2-2.8-1-4.1c-0.8-1.3-1.8-2.5-2.9-3.5
				c-1.2-1.1-1.7-2.1-1.7-3.1s0.8-1.9,2.5-2.6c1.6-0.7,4.8-1.4,9.6-1.9c3.3,0,6.1,0.5,8.5,1.4s4.1,2.5,5.3,4.8
				c1.1,2.3,1.5,5.4,1.2,9.2s-1.6,8.7-3.8,14.6c-5.9,16.5-11.1,31.8-15.8,46.2s-8.3,26.8-11.1,37.4c-2.7,10.6-4.3,19-4.8,25.1
				c-0.5,6.2,0.5,9.3,2.9,9.4c2.4-3.7,5-6,7.6-7c2.7-0.9,5.1-1.2,7.2-0.8c2.6,0.6,5.1,1.8,7.5,3.7c2,1.6,4.1,2.7,6.3,3.4
				c2.2,0.7,4.3,0.9,6.3,0.4c4.7-1.1,8.1-3.2,10.1-6.1s3-5.8,2.9-8.5C1149.4,1353.7,1148.5,1351.5,1146.7,1350z"/>
			<path class="st0" d="M1225,1240.1c-0.4-3.9-1.6-7.3-3.4-10.2c-1.9-2.9-4.7-5.1-8.4-6.7c-3.7-1.6-8.9-2.4-15.5-2.4
				c-6.9,0-12.3,1-16.2,3.1c-3.9,2.1-6.9,4.7-8.8,7.8s-3.2,6.6-3.7,10.4s-0.8,7.4-0.8,10.8v17.4c0,6.4,0,15.2-0.1,26.2
				s0,25.1,0.1,42.3c0,5.4,0.3,10.1,0.8,14.1c0.5,3.9,1.7,7.3,3.7,10c1.9,2.7,4.9,4.8,8.8,6.1c3.9,1.4,9.3,2,16.2,2
				c6.6,0,11.8-0.8,15.6-2.4s6.6-3.8,8.4-6.7c1.8-2.9,2.9-6.3,3.3-10.2c0.4-3.9,0.6-8.3,0.6-13v-85.9
				C1225.6,1248.4,1225.4,1244.1,1225,1240.1z M1222,1349.8c-0.3,3.5-1.2,6.7-2.8,9.4c-1.6,2.8-4.1,5-7.4,6.8s-8.1,2.6-14.1,2.6
				c-2.9,0-5.1-0.7-6.6-2s-2.6-3.3-3.2-5.8s-1-5.6-1.2-9.2s-0.2-7.8-0.2-12.6c-0.1-14.9-0.2-27.7-0.1-38.5s0.1-19.7,0.1-26.7v-20.6
				c0-3,0.1-6.3,0.2-9.8s0.5-6.7,1.2-9.7s1.7-5.4,3.2-7.3s3.7-2.9,6.6-2.9c5.9,0,10.5,0.9,13.8,2.6c3.4,1.7,5.8,4,7.4,6.8
				s2.5,5.9,2.9,9.4s0.5,7.1,0.3,10.8v85.9C1222.3,1342.7,1222.3,1346.3,1222,1349.8z"/>
		</g>
		<g>
			<path class="st0" d="M1683.8,1350c-1.8-1.5-4-1.4-6.8,0.3c-2.2,1.4-3.4,2.8-3.7,4c-0.3,1.2-0.1,2.4,0.4,3.7
				c0.6,1.2,1.4,2.3,2.4,3.3s1.8,2,2.3,2.9s0.5,1.8-0.1,2.6c-0.6,0.8-2.2,1.5-4.7,2c-2,0.3-4.1,0-6.3-1c-2.2-0.9-4.5-2.2-6.8-3.8
				c-2.6-1.6-5.2-2.6-7.7-3c-2.3-0.3-4.7,0-7.2,1c-2.5,0.9-4.8,3.1-7,6.6c-0.6-4.6,0.3-9.9,2.7-15.9c2.4-6,5.6-13.1,9.8-21.3
				c4.2-8.2,8.8-17.6,14.1-28.2c5.2-10.7,10.4-22.9,15.6-36.6c1.6-4,2.5-8.7,2.7-14s-0.5-10.3-2.3-15c-1.7-4.7-4.6-8.7-8.6-11.9
				c-4-3.2-9.4-4.8-16.3-4.8c-4.7,0-8.5,0.7-11.4,2.2s-5,3.2-6.4,5.2s-2.2,4.1-2.4,6.3c-0.1,2.2,0.2,4.2,1,5.8
				c0.8,1.7,2,2.8,3.5,3.3c1.6,0.6,3.4,0.2,5.4-1.1c2.4-1.4,3.7-2.9,3.9-4.3c0.1-1.4-0.2-2.8-1-4.1c-0.8-1.3-1.8-2.5-2.9-3.5
				c-1.2-1.1-1.7-2.1-1.7-3.1s0.8-1.9,2.5-2.6c1.6-0.7,4.8-1.4,9.6-1.9c3.3,0,6.1,0.5,8.5,1.4s4.1,2.5,5.3,4.8
				c1.1,2.3,1.5,5.4,1.2,9.2s-1.6,8.7-3.8,14.6c-5.9,16.5-11.1,31.8-15.8,46.2s-8.3,26.8-11.1,37.4c-2.7,10.6-4.3,19-4.8,25.1
				c-0.5,6.2,0.5,9.3,2.9,9.4c2.4-3.7,5-6,7.6-7c2.7-0.9,5.1-1.2,7.2-0.8c2.6,0.6,5.1,1.8,7.5,3.7c2,1.6,4.1,2.7,6.3,3.4
				c2.2,0.7,4.3,0.9,6.3,0.4c4.7-1.1,8.1-3.2,10.1-6.1s3-5.8,2.9-8.5C1686.6,1353.7,1685.6,1351.5,1683.8,1350z"/>
			<path class="st0" d="M1734.4,1368.6l-0.2-147.5c-1.2,1.7-2.9,3.3-5.2,4.7c-2,1.2-4.7,2.2-8.2,3.2c-3.4,1-7.8,1.6-13.1,1.7v2.6h9
				v135.3h-5.4v2.6h27.3v-2.6L1734.4,1368.6L1734.4,1368.6z"/>
		</g>
	</g>
</g>
</svg>
